<svg id="Layer_1" enable-background="new 0 0 68 68" viewBox="0 0 68 68" xmlns="http://www.w3.org/2000/svg"><g><g><path d="m65.25 63.56348h-62.5c-.24707 0-.47754-.12109-.61719-.32422-.14063-.20313-.17188-.46191-.08398-.69238l9.84375-25.83984c.11133-.29102.38965-.4834.70117-.4834h18.1543c.41406 0 .75.33594.75.75s-.33594.75-.75.75h-17.6377l-9.27246 24.33984h60.32422l-9.27246-24.33984h-17.64746c-.41406 0-.75-.33594-.75-.75s.33594-.75.75-.75h18.16406c.31152 0 .58984.19238.70117.4834l9.84375 25.83984c.08789.23047.05664.48926-.08398.69238-.13965.20312-.37012.32422-.61719.32422z"/></g><g><path d="m12.12891 60.78125c-.08887 0-.17871-.01563-.2666-.04883-.3877-.14746-.58203-.58105-.43457-.96777l1.78027-4.67188c.14746-.38867.58203-.58105.96777-.43457.3877.14746.58203.58105.43457.96777l-1.78027 4.67188c-.11426.29981-.39942.4834-.70117.4834zm3.56054-9.34473c-.08887 0-.17871-.01563-.26662-.04883-.38768-.14746-.58201-.58105-.43455-.96777l1.78027-4.67188c.14746-.38867.58008-.58203.96777-.43457s.58203.58105.43457.96777l-1.78027 4.67188c-.11425.29981-.39941.4834-.70117.4834zm3.56055-9.34472c-.08887 0-.17871-.01563-.2666-.04883-.3877-.14746-.58203-.58105-.43457-.96777l.60645-1.5918c.14746-.3877.58008-.58203.96777-.43457s.58203.58105.43457.96777l-.60645 1.5918c-.11426.2998-.39941.4834-.70117.4834z"/></g><g><g><path d="m49.85352 43.7041c-.31738 0-.6123-.20313-.71387-.52148l-.91504-2.85645c-.12695-.39453.09082-.81641.48535-.94238.39648-.12793.81641.09082.94238.48535l.91504 2.85645c.12695.39453-.09082.81641-.48535.94238-.07617.02441-.15332.03613-.22851.03613z"/></g><g><path d="m52.81738 52.95313c-.31738 0-.6123-.20313-.71387-.52148l-1.48145-4.62402c-.12695-.39453.09082-.81641.48535-.94238.39746-.12695.81738.0918.94238.48535l1.48145 4.62402c.12695.39453-.09082.81641-.48535.94238-.07616.02441-.15331.03613-.22851.03613z"/></g><g><path d="m55.21582 60.43457c-.31738 0-.6123-.20313-.71387-.52148l-.91602-2.85742c-.12695-.39355.09082-.81641.48535-.94238.39063-.12891.81641.0918.94238.48535l.91602 2.85742c.12695.39355-.09082.81641-.48535.94238-.07519.02441-.15331.03613-.22851.03613z"/></g></g><g><path d="m44.81055 63.56348h-21.63086c-.21582 0-.42188-.09277-.56348-.25586-.14258-.16211-.20801-.37793-.17969-.5918l3.4082-25.83984c.04883-.37305.36719-.65234.74316-.65234h4.16016c.41406 0 .75.33594.75.75s-.33594.75-.75.75h-3.50293l-3.20996 24.33984h19.91992l-3.20996-24.33984h-3.50293c-.41406 0-.75-.33594-.75-.75s.33594-.75.75-.75h4.16016c.37598 0 .69434.2793.74316.65234l3.4082 25.83984c.02832.21387-.03711.42969-.17969.5918-.14159.16308-.34764.25586-.56346.25586z" fill="#6877ec"/></g><g><path d="m37.24414 48.50293h-6.49219c-.41406 0-.75-.33594-.75-.75v-13.22656c0-1.20898.9834-2.19238 2.19238-2.19238h3.60742c1.20898 0 2.19238.9834 2.19238 2.19238v13.22656c.00001.41406-.33593.75-.74999.75zm-5.74219-1.5h4.99219v-12.47656c0-.38184-.31055-.69238-.69238-.69238h-3.60742c-.38184 0-.69238.31055-.69238.69238v12.47656z" fill="#6877ec"/></g><g><path d="m33.99023 33.83691c-.41406 0-.75-.33594-.75-.75v-14.11132c0-.06836.00195-.1377.01074-.20605.09863-6.56055 5.30859-11.82227 11.88184-11.98926h.01953c.40527 0 .73926.32324.75.73047.01074.41406-.31641.75879-.73047.76953-5.78027.14648-10.35742 4.78417-10.42187 10.55761-.00098.0459-.00586.09277-.01465.13867l.00488 14.11035c0 .41407-.33593.75-.75.75z" fill="#6877ec"/></g><g><path d="m34 33.83691c-.41406 0-.75-.33594-.75-.75v-14.11132c0-5.90234-4.80273-10.70508-10.70508-10.70508h-1.05469c-.41406 0-.75-.33594-.75-.75s.33594-.75.75-.75h1.05469c6.72949 0 12.20508 5.47559 12.20508 12.20508v14.11133c0 .41406-.33594.74999-.75.74999z" fill="#6877ec"/></g><g><g><path d="m54.28613 11.12207h-6.27343c-1.98828 0-3.60645-1.61816-3.60645-3.60645v-1.35253c0-.19922.0791-.38965.21973-.53027l.97656-.97656c.14063-.14063.33105-.21973.53027-.21973h10.0332c.19922 0 .38965.0791.53027.21973l.97654.97656c.14064.14063.21975.33105.21975.53027v1.35254c.00001 1.98828-1.61816 3.60644-3.60644 3.60644zm-8.37988-4.64844v1.04199c0 1.16113.94531 2.10645 2.10645 2.10645h6.27344c1.16113 0 2.10645-.94531 2.10645-2.10645v-1.04199l-.53711-.53711h-9.41211z"/></g><g><path d="m53.50977 14.30176h-4.71973c-1.05469 0-1.91309-.85742-1.91309-1.91211v-2.02148c0-.41406.33594-.75.75-.75h7.04492c.41406 0 .75.33594.75.75v2.02148c.00001 1.05469-.85742 1.91211-1.9121 1.91211zm-5.13282-3.1836v1.27148c0 .22754.18555.41211.41309.41211h4.71973c.22754 0 .41211-.18457.41211-.41211v-1.27148z"/></g></g><g><g><path d="m18.63867 11.12207h-6.27441c-1.98828 0-3.60547-1.61816-3.60547-3.60645v-1.35253c0-.19922.0791-.38965.21973-.53027l.97656-.97656c.14063-.14063.33105-.21973.53027-.21973h10.03223c.19922 0 .38965.0791.53025.21973l.97658.97656c.14063.14063.21973.33105.21973.53027v1.35254c0 1.98828-1.61719 3.60644-3.60547 3.60644zm-8.37988-4.64844v1.04199c0 1.16113.94434 2.10645 2.10547 2.10645h6.27441c1.16113 0 2.10547-.94531 2.10547-2.10645v-1.04199l-.53711-.53711h-9.41113z"/></g><g><path d="m17.86133 14.30176h-4.71973c-1.05469 0-1.91211-.85742-1.91211-1.91211v-2.02148c0-.41406.33594-.75.75-.75h7.04395c.41406 0 .75.33594.75.75v2.02148c0 1.05469-.85742 1.91211-1.91211 1.91211zm-5.13184-3.1836v1.27148c0 .22754.18457.41211.41211.41211h4.71973c.22754 0 .41211-.18457.41211-.41211v-1.27148z"/></g></g><g><g><path d="m56.43652 18.37891c-.21777 0-.43457-.09473-.58301-.27734l-1.39551-1.7207c-.26074-.32227-.21094-.79395.11035-1.05566.32324-.25977.79395-.21191 1.05566.11035l1.39551 1.7207c.26074.32227.21094.79395-.11035 1.05566-.13964.1123-.30663.16699-.47265.16699z" fill="#6877ec"/></g><g><path d="m51.14941 20.25293c-.41406 0-.75-.33594-.75-.75v-2.21582c0-.41406.33594-.75.75-.75s.75.33594.75.75v2.21582c0 .41406-.33593.75-.75.75z" fill="#6877ec"/></g><g><path d="m45.8623 18.37891c-.16699 0-.33398-.05469-.47266-.16797-.32227-.26074-.37109-.7334-.10938-1.05469l1.39453-1.7207c.26172-.32227.73242-.37012 1.05566-.11035.32129.26172.37109.7334.11035 1.05566l-1.39648 1.7207c-.14842.18262-.36424.27735-.58202.27735z" fill="#6877ec"/></g></g><g><g><path d="m20.78906 18.37891c-.21777 0-.43359-.09473-.58203-.27734l-1.39648-1.7207c-.26172-.32129-.21289-.79395.10938-1.05469.32031-.26074.79199-.21289 1.05469.10938l1.39648 1.7207c.26172.32129.21289.79395-.10938 1.05469-.13867.11327-.30567.16796-.47266.16796z" fill="#6877ec"/></g><g><path d="m15.50098 20.25293c-.41406 0-.75-.33594-.75-.75v-2.21582c0-.41406.33594-.75.75-.75s.75.33594.75.75v2.21582c0 .41406-.33594.75-.75.75z" fill="#6877ec"/></g><g><path d="m10.21387 18.37891c-.16699 0-.33398-.05469-.47266-.16797-.32227-.26074-.37109-.7334-.10938-1.05469l1.39648-1.7207c.2627-.32227.73535-.37012 1.05469-.10938.32227.26074.37109.7334.10938 1.05469l-1.39648 1.7207c-.14844.18262-.36426.27735-.58203.27735z" fill="#6877ec"/></g></g><g><path d="m38.96289 48.50293h-9.92969c-.41406 0-.75-.33594-.75-.75s.33594-.75.75-.75h9.92969c.41406 0 .75.33594.75.75s-.33594.75-.75.75z" fill="#6877ec"/></g></g></svg>