<svg height="512" viewBox="0 0 512 512" width="512" xmlns="http://www.w3.org/2000/svg"><g id="Layer_26" data-name="Layer 26"><path d="m16 224h480v256h-480z" fill="#e3e8f6"/><path d="m32 440a24 24 0 0 0 24 24h440v-240h-464z" fill="#f8f7fe"/><path d="m168 368h176v128h-176z" fill="#f8f7fe"/><path d="m112 192h288v32h-288z" fill="#64a5f8"/><path d="m152 208h248v-16h-270.53a23.928 23.928 0 0 0 22.53 16z" fill="#a4cafb"/><path d="m112 336h288v32h-288z" fill="#64a5f8"/><path d="m128 368h48v32h-48z" fill="#a4cafb"/><path d="m168 392h8v-24h-38.869a31.926 31.926 0 0 0 30.869 24z" fill="#c4dcfc"/><path d="m128 464h48v32h-48z" fill="#a4cafb"/><path d="m168 488h8v-24h-38.869a31.926 31.926 0 0 0 30.869 24z" fill="#c4dcfc"/><path d="m336 464h48v32h-48z" fill="#a4cafb"/><path d="m376 488h8v-24h-38.869a31.926 31.926 0 0 0 30.869 24z" fill="#c4dcfc"/><path d="m336 368h48v32h-48z" fill="#a4cafb"/><path d="m376 392h8v-24h-38.869a31.926 31.926 0 0 0 30.869 24z" fill="#c4dcfc"/><path d="m136 400h32v64h-32z" fill="#64a5f8"/><path d="m208 400h96v96h-96z" fill="#64a5f8"/><path d="m96 160h320v32h-320z" fill="#e3e8f6"/><path d="m144 176h272v-16h-299.562a31.863 31.863 0 0 0 27.562 16z" fill="#f8f7fe"/><path d="m394.465 152.093a169.017 169.017 0 0 0 -276.93 0l-5.535 7.907h288z" fill="#64a5f8"/><path d="m272 80.835a168.966 168.966 0 0 0 -122.465 71.258l-5.535 7.907h256l-5.535-7.907a168.966 168.966 0 0 0 -122.465-71.258z" fill="#a4cafb"/><path d="m48 256h32v64h-32z" fill="#64a5f8"/><path d="m56 280a31.926 31.926 0 0 0 24 30.869v-54.869h-24z" fill="#a4cafb"/><path d="m48 352h32v64h-32z" fill="#64a5f8"/><path d="m56 376a31.926 31.926 0 0 0 24 30.869v-54.869h-24z" fill="#a4cafb"/><path d="m432 256h32v64h-32z" fill="#64a5f8"/><path d="m440 280a31.926 31.926 0 0 0 24 30.869v-54.869h-24z" fill="#a4cafb"/><path d="m432 352h32v64h-32z" fill="#64a5f8"/><path d="m440 376a31.926 31.926 0 0 0 24 30.869v-54.869h-24z" fill="#a4cafb"/><path d="m352 256h32v64h-32z" fill="#64a5f8"/><path d="m360 280a31.926 31.926 0 0 0 24 30.869v-54.869h-24z" fill="#a4cafb"/><path d="m128 256h32v64h-32z" fill="#64a5f8"/><path d="m136 280a31.926 31.926 0 0 0 24 30.869v-54.869h-24z" fill="#a4cafb"/><path d="m256 256-128 56v24h256v-24z" fill="#a4cafb"/><path d="m145.567 304.315a23.94 23.94 0 0 0 22.433 15.685h216v-8l-128-56z" fill="#c4dcfc"/><path d="m344 400h32v64h-32z" fill="#64a5f8"/><path d="m272 400h32a0 0 0 0 1 0 0v80a0 0 0 0 1 0 0 32 32 0 0 1 -32-32v-48a0 0 0 0 1 0 0z" fill="#a4cafb"/><path d="m224 400h32a0 0 0 0 1 0 0v80a0 0 0 0 1 0 0 32 32 0 0 1 -32-32v-48a0 0 0 0 1 0 0z" fill="#a4cafb"/><path d="m256 16h48v32h-48z" fill="#eb445c"/><path d="m296 40h8v-24h-38.869a31.926 31.926 0 0 0 30.869 24z" fill="#ee6a79"/><path d="m440 472h-48v-8a8 8 0 0 0 -8-8v-48a8 8 0 0 0 8-8v-24h8a8 8 0 0 0 8-8v-32a8 8 0 0 0 -8-8h-8v-72a8 8 0 0 0 -8-8h-32a8 8 0 0 0 -8 8v29.771l-84.8-37.1a8.019 8.019 0 0 0 -6.406 0l-84.8 37.1v-29.771a8 8 0 0 0 -8-8h-31.994a8 8 0 0 0 -8 8v72h-8a8 8 0 0 0 -8 8v32a8 8 0 0 0 8 8h8v24a8 8 0 0 0 8 8v48a8 8 0 0 0 -8 8v8h-96v-192a8 8 0 0 0 -16 0v200a8 8 0 0 0 8 8h104v8a8 8 0 0 0 8 8h256a8 8 0 0 0 8-8v-8h48a8 8 0 0 0 0-16zm-80-208h16v35.771l-16-7zm-224 0h16v28.771l-16 7zm0 53.235 120-52.5 120 52.5v10.765h-240zm32 170.765h-32v-16h32zm-24-32v-48h16v48zm24-64h-32v-16h32zm80 96h-32v-80h32zm48 0h-32v-80h32zm40-32a8 8 0 0 0 -8 8v24h-16v-88a8 8 0 0 0 -8-8h-96a8 8 0 0 0 -8 8v88h-16v-24a8 8 0 0 0 -8-8v-48a8 8 0 0 0 8-8v-24h144v24a8 8 0 0 0 8 8zm40 32h-32v-16h32zm-24-32v-48h16v48zm24-64h-32v-16h32zm-256-32v-16h272v16z"/><path d="m496 216h-88v-16h8a8 8 0 0 0 8-8v-32a8 8 0 0 0 -8-8h-11.834l-3.15-4.492a177.1 177.1 0 0 0 -137.016-75.263v-16.245h40a8 8 0 0 0 8-8v-32a8 8 0 0 0 -8-8h-48a8 8 0 0 0 -8 8v56.245a177.116 177.116 0 0 0 -137.016 75.255l-3.152 4.5h-11.832a8 8 0 0 0 -8 8v32a8 8 0 0 0 8 8h8v16h-88a8 8 0 0 0 -8 8v24a8 8 0 0 0 16 0v-16h464v240h-16a8 8 0 0 0 0 16h24a8 8 0 0 0 8-8v-256a8 8 0 0 0 -8-8zm-232-192h32v16h-32zm-160 144h232a8 8 0 0 0 0-16h-208.414a160.824 160.824 0 0 1 256.823 0h-16.409a8 8 0 0 0 0 16h40v16h-304zm16 32h272v16h-272z"/><path d="m48 328h32a8 8 0 0 0 8-8v-64a8 8 0 0 0 -8-8h-32a8 8 0 0 0 -8 8v64a8 8 0 0 0 8 8zm8-64h16v48h-16z"/><path d="m40 416a8 8 0 0 0 8 8h32a8 8 0 0 0 8-8v-64a8 8 0 0 0 -8-8h-32a8 8 0 0 0 -8 8zm16-56h16v48h-16z"/><path d="m432 328h32a8 8 0 0 0 8-8v-64a8 8 0 0 0 -8-8h-32a8 8 0 0 0 -8 8v64a8 8 0 0 0 8 8zm8-64h16v48h-16z"/><path d="m424 416a8 8 0 0 0 8 8h32a8 8 0 0 0 8-8v-64a8 8 0 0 0 -8-8h-32a8 8 0 0 0 -8 8zm16-56h16v48h-16z"/></g></svg>