<svg id="Layer_1" viewBox="0 0 512 512" xmlns="http://www.w3.org/2000/svg" xmlns:xlink="http://www.w3.org/1999/xlink" data-name="Layer 1"><linearGradient id="linear-gradient" gradientUnits="userSpaceOnUse" x2="512" y1="256" y2="256"><stop offset="0" stop-color="#f208fe"/><stop offset=".091" stop-color="#ea0ffd"/><stop offset=".234" stop-color="#d323fa"/><stop offset=".412" stop-color="#ae43f5"/><stop offset=".617" stop-color="#7b70ee"/><stop offset=".843" stop-color="#3aa9e6"/><stop offset="1" stop-color="#08d4df"/></linearGradient><path d="m77.285 255.986-25.761 35.99-25.762-35.99-25.762-35.962h35.35c17.223-106.224 109.341-187.324 220.402-187.324a223.347 223.347 0 0 1 203.938 132.187l-22.76 31.823a190.647 190.647 0 0 0 -181.178-131.285c-92.934 0-170.336 66.531-187.151 154.6h34.417zm408.953 0-25.762-35.962-25.732 35.962-25.762 35.99h33.951c-16.815 88.039-94.217 154.6-187.181 154.6a190.654 190.654 0 0 1 -181-130.82l-22.733 31.765a223.3 223.3 0 0 0 203.733 131.779c111.09 0 203.209-81.1 220.4-187.326h35.848zm-230.224-127.906c70.437 0 127.906 57.469 127.906 127.906 0 70.465-57.469 127.934-127.906 127.934-70.465 0-127.934-57.469-127.934-127.934 0-70.437 57.469-127.906 127.934-127.906zm0 36.4a91.521 91.521 0 1 0 91.507 91.507 91.706 91.706 0 0 0 -91.507-91.508zm-7.2 28.326v10.462a30.387 30.387 0 0 0 7.2 59.917 16 16 0 1 1 0 32 15.791 15.791 0 0 1 -9.209-2.885 16.2 16.2 0 0 1 -5.886-7.723 7.194 7.194 0 0 0 -13.551 4.837 30.6 30.6 0 0 0 21.448 19.322v10.433a7.2 7.2 0 0 0 14.4 0v-10.436a30.41 30.41 0 0 0 -7.2-59.946 16 16 0 1 1 15.067-21.39 7.185 7.185 0 0 0 13.551-4.779 30.611 30.611 0 0 0 -21.419-19.351v-10.462a7.2 7.2 0 0 0 -14.4 0z" fill="url(#linear-gradient)"/></svg>