<svg id="Layer_1" enable-background="new 0 0 550 550" viewBox="0 0 550 550" xmlns="http://www.w3.org/2000/svg" xmlns:xlink="http://www.w3.org/1999/xlink"><linearGradient id="_x34_20_-_Hourglass_1_" gradientUnits="userSpaceOnUse" x1="54.481" x2="478.437" y1="63.022" y2="486.978"><stop offset="0" stop-color="#009fff"/><stop offset="1" stop-color="#ec2f4b"/></linearGradient><path id="_x34_20_-_Hourglass" d="m390.89 539h-248.87c-4.42 0-8-3.58-8-8v-92.11c0-34.82 12.5-68.16 36.16-96.44 12.91-15.43 28.68-28.72 46.85-39.51 9.78-5.8 15.86-16.51 15.86-27.94 0-11.44-6.09-22.16-15.89-27.98-51.96-30.85-82.99-81.66-82.99-135.93v-92.09c0-4.42 3.58-8 8-8h248.87c4.42 0 8 3.58 8 8v92.1c0 30.35-9.71 60.07-28.07 85.94-2.56 3.6-7.55 4.45-11.15 1.89s-4.45-7.55-1.89-11.15c16.43-23.15 25.12-49.67 25.12-76.68v-84.1h-232.87v84.1c0 48.56 28.09 94.23 75.15 122.17 14.63 8.68 23.72 24.67 23.72 41.72 0 17.07-9.08 33.05-23.69 41.71-16.61 9.86-31 21.99-42.75 36.02-21.22 25.36-32.43 55.15-32.43 86.17v84.11h232.87v-84.11c0-18.45-3.98-36.5-11.82-53.66-.48-1.04-.73-2.18-.73-3.33 0-4.42 3.58-8.01 8-8.01 3.35 0 6.21 2.05 7.41 4.96 8.72 19.18 13.14 39.37 13.14 60.02v92.13c0 4.42-3.58 8-8 8zm-310.15-74.15c-4.42 0-8-3.58-8-8v-17.96c0-34.82 12.5-68.16 36.16-96.44 12.91-15.43 28.68-28.72 46.85-39.51 9.78-5.8 15.86-16.51 15.86-27.94 0-11.44-6.09-22.16-15.89-27.98-51.96-30.85-82.98-81.66-82.98-135.93v-38.05c0-4.42 3.58-8 8-8s8 3.58 8 8v38.06c0 48.56 28.09 94.23 75.15 122.17 14.63 8.69 23.72 24.67 23.72 41.72 0 17.07-9.08 33.05-23.69 41.71-16.62 9.86-31 21.99-42.75 36.02-21.22 25.36-32.43 55.15-32.43 86.17v17.96c0 4.42-3.58 8-8 8zm261.82 74.15h-152.2c-4.42 0-8-3.58-8-8v-43.77c0-23.33 8.61-45.95 24.9-65.42 9.4-11.23 20.99-20.97 34.45-28.96 7-4.16 13.33-9.36 18.79-15.47 1.52-1.7 3.69-2.67 5.96-2.67s4.44.97 5.96 2.67c5.48 6.12 11.8 11.33 18.81 15.49 37.14 22.05 59.32 57.33 59.32 94.36v43.77c.01 4.42-3.57 8-7.99 8zm-144.2-16h136.2v-35.77c0-31.33-19.25-61.46-51.49-80.6-5.97-3.55-11.53-7.73-16.6-12.48-5.06 4.74-10.62 8.92-16.59 12.46-11.91 7.07-22.12 15.64-30.35 25.47-13.85 16.55-21.17 35.62-21.17 55.15zm68.1-299.38c-2.28 0-4.45-.97-5.96-2.67-5.47-6.12-11.8-11.33-18.82-15.49-37.14-22.05-59.32-57.33-59.32-94.36v-43.76c0-4.42 3.58-8 8-8h152.2c4.42 0 8 3.58 8 8v43.76c0 23.34-8.61 45.96-24.89 65.42-9.41 11.24-21.01 20.99-34.47 28.98-6.99 4.15-13.31 9.35-18.78 15.46-1.52 1.69-3.69 2.66-5.96 2.66zm-68.1-148.28v35.76c0 31.33 19.25 61.46 51.49 80.6 5.98 3.55 11.54 7.73 16.61 12.48 5.06-4.74 10.61-8.91 16.58-12.45 11.9-7.06 22.12-15.64 30.36-25.49 13.84-16.54 21.16-35.61 21.16-55.15v-35.75zm224.74-48.34h-313.28c-4.42 0-8-3.58-8-8s3.58-8 8-8h313.28c4.42 0 8 3.58 8 8s-3.58 8-8 8zm0 512h-313.28c-4.42 0-8-3.58-8-8s3.58-8 8-8h313.28c4.42 0 8 3.58 8 8s-3.58 8-8 8zm-32.21-148.29c-57.9 0-105-47.1-105-105s47.1-105 105-105 105 47.1 105 105-47.1 105-105 105zm0-194c-49.08 0-89 39.93-89 89s39.92 89 89 89 89-39.92 89-89-39.92-89-89-89zm0 20.66c-4.42 0-8-3.58-8-8v-20.66c0-4.42 3.58-8 8-8s8 3.58 8 8v20.66c0 4.42-3.58 8-8 8zm-53.98 22.36c-2.05 0-4.1-.78-5.66-2.34l-14.61-14.61c-3.12-3.12-3.12-8.19 0-11.31 3.13-3.12 8.19-3.13 11.31 0l14.61 14.61c3.12 3.12 3.12 8.19 0 11.31-1.56 1.56-3.6 2.34-5.65 2.34zm-22.36 53.98h-20.66c-4.42 0-8-3.58-8-8s3.58-8 8-8h20.66c4.42 0 8 3.58 8 8s-3.58 8-8 8zm7.75 68.59c-2.05 0-4.1-.78-5.66-2.34-3.12-3.12-3.12-8.19 0-11.31l14.61-14.61c3.13-3.12 8.19-3.12 11.31 0s3.12 8.19 0 11.31l-14.61 14.61c-1.55 1.56-3.6 2.34-5.65 2.34zm68.59 28.41c-4.42 0-8-3.58-8-8v-20.66c0-4.42 3.58-8 8-8s8 3.58 8 8v20.66c0 4.42-3.58 8-8 8zm68.59-28.41c-2.05 0-4.1-.78-5.66-2.34l-14.61-14.61c-3.13-3.12-3.13-8.19 0-11.31 3.13-3.13 8.19-3.12 11.31 0l14.61 14.61c3.13 3.12 3.13 8.19 0 11.31-1.55 1.56-3.6 2.34-5.65 2.34zm28.41-68.59h-20.66c-4.42 0-8-3.58-8-8s3.58-8 8-8h20.66c4.42 0 8 3.58 8 8s-3.58 8-8 8zm-43.01-53.98c-2.05 0-4.1-.78-5.66-2.34-3.12-3.12-3.12-8.19 0-11.31l14.61-14.61c3.13-3.12 8.19-3.12 11.31 0s3.12 8.19 0 11.31l-14.61 14.61c-1.56 1.56-3.61 2.34-5.65 2.34zm-53.99 67.95c-12.11 0-21.96-9.85-21.96-21.96s9.85-21.96 21.96-21.96 21.96 9.85 21.96 21.96-9.85 21.96-21.96 21.96zm0-27.93c-3.29 0-5.96 2.68-5.96 5.96 0 3.29 2.68 5.96 5.96 5.96s5.96-2.68 5.96-5.96c.01-3.29-2.67-5.96-5.96-5.96zm33.98 47.93c-2.05 0-4.1-.78-5.66-2.34l-24.1-24.11c-3.12-3.12-3.12-8.19 0-11.31 3.13-3.12 8.19-3.12 11.31 0l24.1 24.11c3.12 3.12 3.12 8.19 0 11.31-1.56 1.56-3.6 2.34-5.65 2.34zm-33.98-47.94c-4.42 0-8-3.58-8-8v-30.26c0-4.42 3.58-8 8-8s8 3.58 8 8v30.26c0 4.42-3.58 8-8 8zm-290.77-198.7h-38.01c-4.42 0-8-3.58-8-8s3.58-8 8-8h38.01c4.42 0 8 3.58 8 8s-3.58 8-8 8zm1.07 383.82h-38.01c-4.42 0-8-3.58-8-8s3.58-8 8-8h38.01c4.42 0 8 3.58 8 8s-3.58 8-8 8z" fill="url(#_x34_20_-_Hourglass_1_)"/></svg>