<svg height="512" viewBox="0 0 512 512" width="512" xmlns="http://www.w3.org/2000/svg" xmlns:xlink="http://www.w3.org/1999/xlink"><linearGradient id="a" gradientUnits="userSpaceOnUse" x1="67.055" x2="611.783" y1="564.945" y2="20.217" data-name="New Gradient Swatch 1"><stop offset="0" stop-color="#003f8a"/><stop offset=".518" stop-color="#00d7df"/><stop offset="1" stop-color="#006df0"/></linearGradient><linearGradient id="b" x1="46.555" x2="591.283" xlink:href="#a" y1="544.445" y2="-.283"/><linearGradient id="c" x1="94.555" x2="639.283" xlink:href="#a" y1="592.445" y2="47.717"/><linearGradient id="d" x1="6.555" x2="551.283" xlink:href="#a" y1="504.445" y2="-40.283"/><linearGradient id="e" x1="54.555" x2="599.283" xlink:href="#a" y1="552.445" y2="7.717"/><linearGradient id="f" x1="-33.445" x2="511.283" xlink:href="#a" y1="464.445" y2="-80.283"/><linearGradient id="g" x1="14.555" x2="559.283" xlink:href="#a" y1="512.445" y2="-32.283"/><g><path d="m496 480h-48v-400a8 8 0 0 0 -8-8h-24v-24a8 8 0 0 0 -8-8h-112v-8a8 8 0 0 0 -16 0v8h-8v-24a8 8 0 0 0 -16 0v24h-8a8 8 0 0 0 -8 8v24h-24a8 8 0 0 0 -8 8v160h-80v-16a8 8 0 0 0 -16 0v16h-8v-40a8 8 0 0 0 -16 0v40h-16a8 8 0 0 0 -8 8v232h-48a8 8 0 0 0 0 16h480a8 8 0 0 0 0-16zm-288-72h-88v-32h88zm0-80h-88v-32h88zm0-48h-96a8 8 0 0 0 -8 8v48a8 8 0 0 0 8 8h96v16h-96a8 8 0 0 0 -8 8v48a8 8 0 0 0 8 8h96v56h-128v-224h128zm48-224h144v16h-144zm64 424h-48v-88h48zm64 0h-48v-88h48zm48 0h-32v-96a8 8 0 0 0 -8-8h-128a8 8 0 0 0 -8 8v96h-32v-392h208z" fill="url(#a)"/><path d="m304 279h-48a8 8 0 0 0 -8 8v48a8 8 0 0 0 8 8h48a8 8 0 0 0 8-8v-48a8 8 0 0 0 -8-8zm-8 48h-32v-32h32z" fill="url(#b)"/><path d="m400 279h-48a8 8 0 0 0 -8 8v48a8 8 0 0 0 8 8h48a8 8 0 0 0 8-8v-48a8 8 0 0 0 -8-8zm-8 48h-32v-32h32z" fill="url(#c)"/><path d="m304 199h-48a8 8 0 0 0 -8 8v48a8 8 0 0 0 8 8h48a8 8 0 0 0 8-8v-48a8 8 0 0 0 -8-8zm-8 48h-32v-32h32z" fill="url(#d)"/><path d="m400 199h-48a8 8 0 0 0 -8 8v48a8 8 0 0 0 8 8h48a8 8 0 0 0 8-8v-48a8 8 0 0 0 -8-8zm-8 48h-32v-32h32z" fill="url(#e)"/><path d="m304 119h-48a8 8 0 0 0 -8 8v48a8 8 0 0 0 8 8h48a8 8 0 0 0 8-8v-48a8 8 0 0 0 -8-8zm-8 48h-32v-32h32z" fill="url(#f)"/><path d="m400 119h-48a8 8 0 0 0 -8 8v48a8 8 0 0 0 8 8h48a8 8 0 0 0 8-8v-48a8 8 0 0 0 -8-8zm-8 48h-32v-32h32z" fill="url(#g)"/></g></svg>