<svg id="Gradient" height="512" viewBox="0 0 512 512" width="512" xmlns="http://www.w3.org/2000/svg" xmlns:xlink="http://www.w3.org/1999/xlink"><linearGradient id="linear-gradient" gradientUnits="userSpaceOnUse" x1="256" x2="256" y1="480" y2="32"><stop offset="0" stop-color="#12bee5"/><stop offset=".5" stop-color="#c071e9"/><stop offset="1" stop-color="#f24f5a"/></linearGradient><path d="m291.313 256h68.687a8 8 0 0 1 5.472 2.164l128 120a8 8 0 0 1 -10.944 11.672l-125.692-117.836h-68.836a8 8 0 0 1 -5.657-2.343l-117.656-117.657h-60.687a8 8 0 0 1 -5.657-2.343l-80-80a8 8 0 0 1 11.314-11.314l77.656 77.657h60.687a8 8 0 0 1 5.657 2.343zm-211.313-88v304a8 8 0 0 1 -8 8h-48a8 8 0 0 1 -8-8v-304a8 8 0 0 1 8-8h48a8 8 0 0 1 8 8zm-16 8h-32v288h32zm32 296v-240a8 8 0 0 1 8-8h48a8 8 0 0 1 8 8v240a8 8 0 0 1 -8 8h-48a8 8 0 0 1 -8-8zm16-8h32v-224h-32zm120 16h-48a8 8 0 0 1 -8-8v-184a8 8 0 0 1 8-8h48a8 8 0 0 1 8 8v184a8 8 0 0 1 -8 8zm-8-184h-32v168h32zm88 184h-48a8 8 0 0 1 -8-8v-120a8 8 0 0 1 8-8h48a8 8 0 0 1 8 8v120a8 8 0 0 1 -8 8zm-8-120h-32v104h32zm40 120a8 8 0 0 1 -8-8v-88a8 8 0 0 1 8-8h48a8 8 0 0 1 8 8v88a8 8 0 0 1 -8 8zm8-16h32v-72h-32zm72 16a8 8 0 0 1 -8-8v-48a8 8 0 0 1 8-8h48a8 8 0 0 1 8 8v48a8 8 0 0 1 -8 8zm8-16h32v-32h-32zm32-424v136h24a8 8 0 0 1 5.657 13.657l-64 64a8 8 0 0 1 -11.314 0l-64-64a8 8 0 0 1 5.657-13.657h24v-136a8 8 0 0 1 8-8h64a8 8 0 0 1 8 8zm-8 152a8 8 0 0 1 -8-8v-136h-48v136a8 8 0 0 1 -8 8h-12.686l44.686 44.687 44.686-44.687z" fill="url(#linear-gradient)"/></svg>