<?xml version="1.0" encoding="UTF-8" standalone="no"?>
<!-- Created with Inkscape (http://www.inkscape.org/) -->

<svg
   version="1.1"
   id="svg6108"
   xml:space="preserve"
   width="682.66669"
   height="682.66669"
   viewBox="0 0 682.66669 682.66669"
   xmlns="http://www.w3.org/2000/svg"
   xmlns:svg="http://www.w3.org/2000/svg"><defs
     id="defs6112"><clipPath
       clipPathUnits="userSpaceOnUse"
       id="clipPath6122"><path
         d="M 0,512 H 512 V 0 H 0 Z"
         id="path6120" /></clipPath></defs><g
     id="g6114"
     transform="matrix(1.3333333,0,0,-1.3333333,0,682.66667)"><g
       id="g6116"><g
         id="g6118"
         clip-path="url(#clipPath6122)"><g
           id="g6124"
           transform="translate(34.0176,478.0264)"><path
             d="m 0,0 v -444.053 c 0,-14.621 11.852,-26.473 26.473,-26.473 H 364.5 c 14.62,0 26.473,11.852 26.473,26.473 V -90.276 L 274.223,26.474 H 26.473 C 11.852,26.474 0,14.621 0,0"
             style="fill:#ebeef2;fill-opacity:1;fill-rule:nonzero;stroke:none"
             id="path6126" /></g><g
           id="g6128"
           transform="translate(398.5176,7.5)"><path
             d="M 0,0 C 14.62,0 26.473,11.853 26.473,26.473 V 380.25 l -92.661,92.661 V 349.445 c 0,-11.039 8.948,-19.987 19.987,-19.987 h 20.012 L -26.189,0 Z"
             style="fill:#d4d9e0;fill-opacity:1;fill-rule:nonzero;stroke:none"
             id="path6130" /></g><g
           id="g6132"
           transform="translate(308.2402,504.5)"><path
             d="M 0,0 116.75,-116.75 H 20.003 C 8.955,-116.75 0,-107.795 0,-96.747 Z"
             style="fill:#fd715c;fill-opacity:1;fill-rule:nonzero;stroke:none"
             id="path6134" /></g><g
           id="g6136"
           transform="translate(82.0547,436.9844)"><path
             d="M 0,0 H 151.009"
             style="fill:none;stroke:#000000;stroke-width:15;stroke-linecap:round;stroke-linejoin:round;stroke-miterlimit:10;stroke-dasharray:none;stroke-opacity:1"
             id="path6138" /></g><g
           id="g6140"
           transform="translate(82.0547,387.6475)"><path
             d="M 0,0 H 151.009"
             style="fill:none;stroke:#000000;stroke-width:15;stroke-linecap:round;stroke-linejoin:round;stroke-miterlimit:10;stroke-dasharray:none;stroke-opacity:1"
             id="path6142" /></g><g
           id="g6144"
           transform="translate(474.3711,143.6826)"><path
             d="m 0,0 -95.218,85.518 c -7.008,6.294 -18.161,1.32 -18.161,-8.1 V 40.251 c -137.634,-7.372 -169.404,-118.401 -176.733,-169.255 -0.929,-6.443 7.302,-9.835 11.225,-4.641 34.69,45.921 89.203,73.505 147.682,73.505 h 17.826 v -33.477 c 0,-9.42 11.153,-14.394 18.161,-8.1 L 0,-16.199 C 4.815,-11.873 4.815,-4.326 0,0"
             style="fill:#5f9eeb;fill-opacity:1;fill-rule:nonzero;stroke:none"
             id="path6146" /></g><g
           id="g6148"
           transform="translate(343.166,141.5322)"><path
             d="m 0,0 c -55.729,0 -107.844,-25.065 -142.645,-67.165 -9.375,-22.423 -13.993,-43.941 -16.262,-59.689 -0.929,-6.443 7.303,-9.834 11.225,-4.64 34.69,45.921 89.203,73.505 147.682,73.505 h 17.826 v -33.478 c 0,-9.42 11.153,-14.393 18.161,-8.099 l 95.218,85.517 c 4.093,3.677 4.693,9.674 1.829,14.049 z"
             style="fill:#3b83d1;fill-opacity:1;fill-rule:nonzero;stroke:none"
             id="path6150" /></g><g
           id="g6152"
           transform="translate(82.0547,289.9971)"><path
             d="M 0,0 H 294.897"
             style="fill:none;stroke:#000000;stroke-width:15;stroke-linecap:round;stroke-linejoin:round;stroke-miterlimit:10;stroke-dasharray:none;stroke-opacity:1"
             id="path6154" /></g><g
           id="g6156"
           transform="translate(82.0547,222.3662)"><path
             d="M 0,0 H 226.186"
             style="fill:none;stroke:#000000;stroke-width:15;stroke-linecap:round;stroke-linejoin:round;stroke-miterlimit:10;stroke-dasharray:none;stroke-opacity:1"
             id="path6158" /></g><g
           id="g6160"
           transform="translate(82.0547,154.7344)"><path
             d="M 0,0 H 125.784"
             style="fill:none;stroke:#000000;stroke-width:15;stroke-linecap:round;stroke-linejoin:round;stroke-miterlimit:10;stroke-dasharray:none;stroke-opacity:1"
             id="path6162" /></g><g
           id="g6164"
           transform="translate(424.9902,387.75)"><path
             d="m 0,0 h -96.747 c -11.048,0 -20.003,8.955 -20.003,20.003 v 96.747"
             style="fill:none;stroke:#000000;stroke-width:15;stroke-linecap:round;stroke-linejoin:round;stroke-miterlimit:10;stroke-dasharray:none;stroke-opacity:1"
             id="path6166" /></g><g
           id="g6168"
           transform="translate(474.3711,143.6826)"><path
             d="m 0,0 -95.218,85.518 c -7.008,6.294 -18.161,1.32 -18.161,-8.1 V 40.251 c -137.634,-7.372 -169.404,-118.401 -176.733,-169.255 -0.929,-6.443 7.302,-9.835 11.225,-4.641 34.69,45.921 89.203,73.505 147.682,73.505 h 17.826 v -33.477 c 0,-9.42 11.153,-14.394 18.161,-8.1 L 0,-16.199 C 4.815,-11.873 4.815,-4.326 0,0 Z"
             style="fill:none;stroke:#000000;stroke-width:15;stroke-linecap:round;stroke-linejoin:round;stroke-miterlimit:10;stroke-dasharray:none;stroke-opacity:1"
             id="path6170" /></g><g
           id="g6172"
           transform="translate(424.9902,222.3027)"><path
             d="m 0,0 v 165.447 l -116.75,116.75 H -364.5 c -14.62,0 -26.473,-11.852 -26.473,-26.472 V -188.33 c 0,-14.62 11.853,-26.473 26.473,-26.473 h 338.027 c 14.62,0 26.473,11.853 26.473,26.473 v 15.484"
             style="fill:none;stroke:#000000;stroke-width:15;stroke-linecap:round;stroke-linejoin:round;stroke-miterlimit:10;stroke-dasharray:none;stroke-opacity:1"
             id="path6174" /></g></g></g></g></svg>
