<svg version="1.1" id="Capa_1" xmlns="http://www.w3.org/2000/svg" xmlns:xlink="http://www.w3.org/1999/xlink" x="0px" y="0px" viewBox="0 0 512 512" style="enable-background:new 0 0 512 512;" xml:space="preserve">
<g>
	<g>
		<circle style="fill:#88E0FD;" cx="256" cy="248.5" r="192.535"/>
		<path style="fill:#5CD6FE;" d="M360.064,86.489c27.258,33.22,43.623,75.719,43.623,122.044&#10;&#9;&#9;&#9;c0,106.334-86.201,192.534-192.534,192.534c-38.338,0-74.057-11.208-104.064-30.523c35.31,43.033,88.903,70.49,148.912,70.49&#10;&#9;&#9;&#9;c106.334,0,192.534-86.2,192.534-192.534C448.534,180.504,413.285,120.744,360.064,86.489z"/>
		<ellipse style="fill:#D5F1FF;" cx="256" cy="248.5" rx="69.136" ry="192.535"/>
		<path style="fill:#B1E9FE;" d="M213.815,401.034c11.674,25.075,26.302,40.001,42.185,40.001c20.818,0,39.485-25.628,52.16-66.168&#10;&#9;&#9;&#9;C280.389,391.097,248.192,400.567,213.815,401.034z"/>
		<circle style="fill:#BD89E8;" cx="446.598" cy="96.572" r="19.364"/>
		<circle style="fill:#BD89E8;" cx="67.349" cy="415.973" r="19.364"/>
		<circle style="fill:#BD89E8;" cx="60.92" cy="248.5" r="19.364"/>
		<circle style="fill:#BD89E8;" cx="407.871" cy="363.685" r="19.364"/>
		<circle style="fill:#BD89E8;" cx="255.032" cy="57.844" r="19.364"/>
		<circle style="fill:#BD89E8;" cx="325.136" cy="248.5" r="19.364"/>
		<circle style="fill:#BD89E8;" cx="255.032" cy="439.156" r="19.364"/>
	</g>
	<g>
		<path style="fill:none;stroke:#000000;stroke-width:15;stroke-linecap:round;stroke-linejoin:round;stroke-miterlimit:10;" d="&#10;&#9;&#9;&#9;M7.552,261.12C6.215,195.827,30.459,130.109,80.284,80.284c97.045-97.045,254.387-97.045,351.432,0"/>
		<path style="fill:none;stroke:#000000;stroke-width:15;stroke-linecap:round;stroke-linejoin:round;stroke-miterlimit:10;" d="&#10;&#9;&#9;&#9;M504.448,250.88c1.337,65.292-22.907,131.011-72.732,180.836c-97.045,97.045-254.387,97.045-351.432,0"/>
		<path style="fill:none;stroke:#000000;stroke-width:15;stroke-linecap:round;stroke-linejoin:round;stroke-miterlimit:10;" d="&#10;&#9;&#9;&#9;M232.719,439.641c-88.16-10.626-157.979-80.83-168.014-169.171"/>
		<path style="fill:none;stroke:#000000;stroke-width:15;stroke-linecap:round;stroke-linejoin:round;stroke-miterlimit:10;" d="&#10;&#9;&#9;&#9;M394.417,382.33c-29.933,30.952-70.153,51.893-115.151,57.313"/>
		<path style="fill:none;stroke:#000000;stroke-width:15;stroke-linecap:round;stroke-linejoin:round;stroke-miterlimit:10;" d="&#10;&#9;&#9;&#9;M279.431,57.377c95.283,11.56,169.104,92.721,169.104,191.123c0,35.991-9.875,69.675-27.064,98.49"/>
		<path style="fill:none;stroke:#000000;stroke-width:15;stroke-linecap:round;stroke-linejoin:round;stroke-miterlimit:10;" d="&#10;&#9;&#9;&#9;M136.537,97.5c27.05-21.429,59.992-35.744,96.001-40.119"/>
		<path style="fill:none;stroke:#000000;stroke-width:15;stroke-linecap:round;stroke-linejoin:round;stroke-miterlimit:10;" d="&#10;&#9;&#9;&#9;M64.427,229.136c4.051-40.567,20.695-77.425,45.965-106.608"/>
		<path style="fill:none;stroke:#000000;stroke-width:15;stroke-linecap:round;stroke-linejoin:round;stroke-miterlimit:10;" d="&#10;&#9;&#9;&#9;M234.359,431.414c-27.583-25.295-47.495-97.629-47.495-182.914c0-86.396,20.434-159.501,48.577-183.879"/>
		<path style="fill:none;stroke:#000000;stroke-width:15;stroke-linecap:round;stroke-linejoin:round;stroke-miterlimit:10;" d="&#10;&#9;&#9;&#9;M315.105,348.437c-8.47,38.768-21.72,68.545-37.472,82.984"/>
		<path style="fill:none;stroke:#000000;stroke-width:15;stroke-linecap:round;stroke-linejoin:round;stroke-miterlimit:10;" d="&#10;&#9;&#9;&#9;M324.691,270.452c-0.577,14.156-1.705,27.846-3.323,40.901"/>
		<path style="fill:none;stroke:#000000;stroke-width:15;stroke-linecap:round;stroke-linejoin:round;stroke-miterlimit:10;" d="&#10;&#9;&#9;&#9;M280.765,68.686c23.303,24.906,40.534,83.932,43.807,155.115"/>
		
			<line style="fill:none;stroke:#000000;stroke-width:15;stroke-linecap:round;stroke-linejoin:round;stroke-miterlimit:10;" x1="347.095" y1="248.5" x2="446.598" y2="248.5"/>
		
			<line style="fill:none;stroke:#000000;stroke-width:15;stroke-linecap:round;stroke-linejoin:round;stroke-miterlimit:10;" x1="83.138" y1="248.5" x2="302.668" y2="248.5"/>
		
			<circle style="fill:none;stroke:#000000;stroke-width:15;stroke-linecap:round;stroke-linejoin:round;stroke-miterlimit:10;" cx="446.598" cy="96.572" r="19.364"/>
		
			<circle style="fill:none;stroke:#000000;stroke-width:15;stroke-linecap:round;stroke-linejoin:round;stroke-miterlimit:10;" cx="67.349" cy="415.973" r="19.364"/>
		
			<circle style="fill:none;stroke:#000000;stroke-width:15;stroke-linecap:round;stroke-linejoin:round;stroke-miterlimit:10;" cx="60.92" cy="248.5" r="19.364"/>
		
			<circle style="fill:none;stroke:#000000;stroke-width:15;stroke-linecap:round;stroke-linejoin:round;stroke-miterlimit:10;" cx="407.871" cy="363.685" r="19.364"/>
		
			<circle style="fill:none;stroke:#000000;stroke-width:15;stroke-linecap:round;stroke-linejoin:round;stroke-miterlimit:10;" cx="255.032" cy="57.844" r="19.364"/>
		
			<circle style="fill:none;stroke:#000000;stroke-width:15;stroke-linecap:round;stroke-linejoin:round;stroke-miterlimit:10;" cx="325.136" cy="248.5" r="19.364"/>
		
			<circle style="fill:none;stroke:#000000;stroke-width:15;stroke-linecap:round;stroke-linejoin:round;stroke-miterlimit:10;" cx="255.032" cy="439.156" r="19.364"/>
	</g>
</g>
<g>
</g>
<g>
</g>
<g>
</g>
<g>
</g>
<g>
</g>
<g>
</g>
<g>
</g>
<g>
</g>
<g>
</g>
<g>
</g>
<g>
</g>
<g>
</g>
<g>
</g>
<g>
</g>
<g>
</g>
</svg>