<svg id="Layer_1" enable-background="new 0 0 68 68" viewBox="0 0 68 68" xmlns="http://www.w3.org/2000/svg"><g><g><g><g><path d="m50.72 61.87c0 2.31-7.49 4.18-16.73 4.18-9.23 0-16.72-1.87-16.72-4.18s7.49-4.18 16.72-4.18c9.25 0 16.73 1.87 16.73 4.18z" fill="#d0dffc"/></g></g></g><g><g><g><g><g><g><path d="m50.72 61.87c0 2.31-7.49 4.18-16.73 4.18-9.23 0-16.72-1.87-16.72-4.18s7.49-4.18 16.72-4.18c9.25 0 16.73 1.87 16.73 4.18z" fill="#d0dffc"/></g></g></g></g></g><g><g><g><path d="m52.56 33.48h-.79c-.33 0-.6-.27-.6-.6s.27-.6.6-.6h.79c.33 0 .6.27.6.6s-.27.6-.6.6zm-3.79-.01h-2c-.33 0-.6-.27-.6-.6s.27-.6.6-.6h2c.33 0 .6.27.6.6s-.27.6-.6.6zm-5-.01h-2c-.33 0-.6-.27-.6-.6s.27-.6.6-.6h2c.33 0 .6.27.6.6s-.27.6-.6.6zm-5-.01h-2c-.33 0-.6-.27-.6-.6s.27-.6.6-.6h2c.33 0 .6.27.6.6s-.27.6-.6.6zm-4.83-.9c-.08 0-.15-.01-.23-.04l-1.85-.75c-.31-.12-.46-.47-.33-.78.12-.31.47-.45.78-.33l1.85.75c.31.12.46.47.33.78-.08.23-.31.37-.55.37zm-4.63-1.88c-.08 0-.15-.01-.23-.04l-1.85-.75c-.31-.12-.46-.47-.33-.78.12-.31.48-.45.78-.33l1.85.75c.31.12.46.47.33.78-.09.23-.31.37-.55.37zm-4.63-1.88c-.08 0-.15-.01-.23-.04l-1.85-.75c-.31-.12-.46-.47-.33-.78.12-.31.48-.45.78-.33l1.85.75c.31.12.46.47.33.78-.09.23-.32.37-.55.37zm-4.64-1.88c-.08 0-.15-.01-.23-.04l-1.85-.75c-.31-.12-.46-.47-.33-.78.12-.31.48-.45.78-.33l1.85.75c.31.12.46.47.33.78-.08.23-.31.37-.55.37zm-4.63-1.88c-.08 0-.15-.01-.23-.04l-1.85-.75c-.31-.12-.46-.47-.33-.78.12-.31.48-.45.78-.33l1.85.75c.31.12.46.47.33.78-.09.23-.31.37-.55.37z" fill="#111172"/></g><g><path d="m30.14 51.42h-.59c-.33 0-.6-.27-.6-.6s.27-.6.6-.6h.59c.43 0 .85-.05 1.26-.15.33-.08.65.12.72.44.08.32-.12.65-.44.72-.5.13-1.02.19-1.54.19zm-3.59 0h-2c-.33 0-.6-.27-.6-.6s.27-.6.6-.6h2c.33 0 .6.27.6.6s-.27.6-.6.6zm-5 0h-2c-.33 0-.6-.27-.6-.6s.27-.6.6-.6h2c.33 0 .6.27.6.6s-.27.6-.6.6zm-5 0h-1.11c-.33 0-.6-.27-.6-.6s.27-.6.6-.6h1.11c.33 0 .6.27.6.6s-.27.6-.6.6zm17.61-1.54c-.16 0-.33-.07-.45-.2-.22-.25-.2-.63.04-.85.45-.41.82-.88 1.11-1.4.16-.29.53-.39.81-.23.29.16.4.53.23.82-.35.64-.81 1.22-1.36 1.71-.09.1-.23.15-.38.15zm1.99-4.45c-.33 0-.6-.26-.6-.59v-2c0-.33.27-.6.6-.6s.6.27.6.6v1.97c0 .34-.27.62-.6.62zm0-4.99c-.33 0-.6-.27-.6-.6v-2c0-.33.27-.6.6-.6s.6.27.6.6v2c0 .34-.27.6-.6.6zm0-5c-.33 0-.6-.27-.6-.6v-2c0-.33.27-.6.6-.6s.6.27.6.6v2c0 .34-.27.6-.6.6z" fill="#111172"/></g></g><g><g><path d="m21.33 9.72c0 3.49-5.14 11.34-7.07 14.16-.34.5-1.08.5-1.42 0-1.93-2.82-7.06-10.67-7.06-14.16 0-4.3 3.49-7.77 7.77-7.77s7.78 3.48 7.78 7.77z" fill="#ffe44d"/><path d="m18.96 9.72c0 2.98-2.43 5.41-5.41 5.41-2.99 0-5.41-2.42-5.41-5.41s2.43-5.41 5.41-5.41c2.99 0 5.41 2.42 5.41 5.41z" fill="#ff884c"/><path d="m17.54 9.72c0 2.2-1.79 3.98-3.99 3.98s-3.99-1.78-3.99-3.98 1.79-3.99 3.99-3.99 3.99 1.79 3.99 3.99z" fill="#fff"/></g></g><g><g><path d="m23.12 37.1c0 3.44-5.07 11.19-6.98 13.98-.34.49-1.07.49-1.41 0-1.9-2.78-6.97-10.53-6.97-13.98 0-4.24 3.44-7.67 7.67-7.67s7.69 3.43 7.69 7.67z" fill="#f24865"/><path d="m20.78 37.1c0 2.95-2.39 5.34-5.34 5.34s-5.34-2.39-5.34-5.34 2.39-5.34 5.34-5.34 5.34 2.39 5.34 5.34z" fill="#cf1b4c"/><path d="m19.38 37.1c0 2.17-1.76 3.93-3.94 3.93-2.17 0-3.94-1.76-3.94-3.93 0-2.18 1.76-3.94 3.94-3.94s3.94 1.76 3.94 3.94z" fill="#fff"/></g></g><g><g><path d="m62.22 14.83c0 4.33-6.38 14.08-8.78 17.58-.42.62-1.34.62-1.77 0-2.39-3.5-8.77-13.25-8.77-17.58 0-5.34 4.33-9.66 9.66-9.66s9.66 4.32 9.66 9.66z" fill="#5cbeff"/><path d="m59.28 14.83c0 3.71-3.01 6.71-6.72 6.71s-6.72-3.01-6.72-6.71c0-3.71 3.01-6.72 6.72-6.72 3.7 0 6.72 3 6.72 6.72z" fill="#079cff"/><path d="m57.51 14.83c0 2.73-2.22 4.95-4.95 4.95s-4.95-2.22-4.95-4.95c0-2.74 2.22-4.95 4.95-4.95 2.73-.01 4.95 2.21 4.95 4.95z" fill="#fff"/></g></g></g></g></g></svg>