<svg width="40" height="40" viewBox="0 0 40 40" fill="none" xmlns="http://www.w3.org/2000/svg">
<g clip-path="url(#clip0_893_2862)">
<path d="M9.88711 17.7345C9.18868 17.0252 8.5293 16.372 7.88868 15.7002C6.69961 14.4533 7.25743 12.4252 8.91836 11.9627C9.82305 11.7111 10.6012 11.9658 11.2621 12.6189C12.7574 14.0955 14.2527 15.5689 15.7496 17.0439C16.3231 17.6095 16.9027 18.1674 17.4699 18.7392C18.2402 19.5142 18.2527 20.4783 17.4824 21.2408C15.4012 23.3033 13.3121 25.3611 11.2184 27.4111C10.4668 28.147 9.51211 28.3205 8.61524 27.9236C7.76836 27.5486 7.22149 26.7095 7.24961 25.8002C7.26836 25.1986 7.49805 24.6814 7.92461 24.2486C8.56055 23.6049 9.1918 22.9549 9.87149 22.258C9.72461 22.258 9.59961 22.258 9.47461 22.258C7.78867 22.258 6.10274 22.2595 4.4168 22.258C3.04024 22.2564 2.02774 21.2908 2.0293 19.983C2.03242 18.6955 3.04492 17.7314 4.39961 17.7299C6.07305 17.7283 7.74649 17.7299 9.41836 17.7299C9.55743 17.7345 9.69336 17.7345 9.88711 17.7345Z" fill="black"/>
<path d="M30.1161 17.7352C30.4786 17.7352 30.7911 17.7352 31.102 17.7352C32.6239 17.7352 34.1458 17.7321 35.6677 17.7368C36.9724 17.7399 37.9724 18.7368 37.9677 20.0196C37.963 21.2712 36.9536 22.2587 35.663 22.2618C33.952 22.2665 32.2411 22.2634 30.5317 22.2634C30.4099 22.2634 30.288 22.2634 30.0895 22.2634C30.2208 22.404 30.2989 22.4946 30.3817 22.5774C30.9442 23.1352 31.5145 23.6868 32.0692 24.2524C32.963 25.1665 32.9802 26.5102 32.1224 27.4071C31.2583 28.3102 29.8614 28.3837 28.927 27.5415C28.3474 27.0196 27.8067 26.4571 27.2505 25.9102C25.6817 24.3665 24.1145 22.8212 22.5473 21.2759C21.7583 20.4962 21.7442 19.518 22.5239 18.7462C24.5911 16.704 26.6645 14.6696 28.7317 12.6274C29.3927 11.9743 30.1677 11.7134 31.0739 11.9618C32.7364 12.4165 33.302 14.4415 32.1177 15.6946C31.4786 16.3696 30.8161 17.0227 30.1161 17.7352Z" fill="black"/>
</g>
<defs>
<clipPath id="clip0_893_2862">
<rect width="40" height="40" fill="white"/>
</clipPath>
</defs>
</svg>
