<svg width="256" height="256" viewBox="0 0 256 256" fill="none" xmlns="http://www.w3.org/2000/svg">
<g clip-path="url(#clip0_2046_65)">
<path d="M243 137.431C241.25 140.601 239.75 143.951 237.7 146.921C226.09 163.731 214.28 180.391 202.68 197.201C193.91 209.901 181.91 216.091 166.53 216.061C142.13 216.011 117.72 216.041 93.31 216.071C91.89 216.071 91.06 215.771 90.37 214.381C78.19 189.801 65.93 165.251 53.7 140.701C53.47 140.251 53.26 139.781 53 139.251C61.19 131.711 69.47 124.501 80.41 121.421C97.36 116.661 112.73 119.661 126.04 131.361C129.2 134.141 132.42 135.311 136.57 135.231C147.05 135.031 157.53 135.091 168.01 135.191C177.87 135.291 184.22 144.241 181 153.301C179.11 158.621 174.08 162.071 167.92 162.111C159.24 162.161 150.55 162.081 141.87 162.141C136.68 162.171 133.42 166.681 135.2 171.291C136.25 174.011 138.36 175.541 141.22 175.561C151.85 175.641 162.48 175.741 173.11 175.511C177.43 175.421 181.14 173.411 183.95 169.941C195.46 155.761 207.01 141.611 218.5 127.421C222.05 123.041 226.47 120.891 232.09 122.011C237.78 123.151 241.25 126.741 242.61 132.381C242.66 132.581 242.85 132.741 242.97 132.921C243 134.441 243 135.931 243 137.431Z" fill="#164CA1"/>
<path d="M58.34 243.021C55.71 241.791 54.23 239.611 52.96 237.061C40.18 211.371 27.33 185.711 14.49 160.051C11.7 154.481 12.74 151.361 18.28 148.611C20.55 147.481 22.81 146.301 25.1 145.221C32.73 141.601 40.22 144.071 44.02 151.641C55.31 174.151 66.55 196.681 77.74 219.241C81.56 226.951 78.96 234.351 71.28 238.291C68.17 239.881 65.05 241.451 61.93 243.031C60.73 243.021 59.54 243.021 58.34 243.021Z" fill="#164CA1"/>
<path d="M164.67 67.8713C170.97 75.0013 174.48 83.1413 175.07 92.5013C175.24 95.1813 175.16 97.8813 175.15 100.581C175.13 105.561 172.5 108.221 167.55 108.231C153.41 108.251 139.27 108.241 125.13 108.241C117.27 108.241 109.42 108.251 101.56 108.241C96.47 108.231 93.95 105.591 93.81 100.471C93.6 92.5413 94.08 84.7213 97.88 77.5513C99.68 74.1613 101.92 70.9913 104.03 67.6113C120.6 85.3213 147.85 85.9513 164.67 67.8713Z" fill="#164CA1"/>
<path d="M161.67 40.2904C161.71 55.2604 149.55 67.7304 134.84 67.7904C119.96 67.8504 107.31 55.2404 107.32 40.3704C107.33 25.5904 119.86 13.0304 134.65 12.9904C149.37 12.9404 161.63 25.3304 161.67 40.2904Z" fill="#164CA1"/>
</g>
<defs>
<clipPath id="clip0_2046_65">
<rect width="256" height="256" fill="white"/>
</clipPath>
</defs>
</svg>
