<svg width="40" height="40" viewBox="0 0 40 40" fill="none" xmlns="http://www.w3.org/2000/svg">
<g clip-path="url(#clip0_893_2840)">
<path d="M19.5169 2.03906C19.845 2.03906 20.1716 2.03906 20.4997 2.03906C21.5154 2.23281 22.2341 2.875 22.9372 3.58125C27.3904 8.05625 31.8544 12.5203 36.3294 16.9734C37.0669 17.7078 37.7607 18.4437 37.97 19.5078C37.97 19.8359 37.97 20.1625 37.97 20.4906C37.9482 20.5422 37.9154 20.5922 37.9044 20.6469C37.5575 22.2297 36.3075 23.2641 34.6919 23.3031C34.5107 23.3078 34.3279 23.3031 34.1185 23.3031C34.1185 23.4953 34.1185 23.6328 34.1185 23.7719C34.1185 27.1734 34.1263 30.575 34.1154 33.9766C34.1075 36.3156 32.445 37.9578 30.1091 37.9594C28.3091 37.9609 26.5091 37.9594 24.7091 37.9594C23.8497 37.9594 23.456 37.5594 23.456 36.6906C23.456 33.9547 23.4591 31.2203 23.4544 28.4844C23.4529 27.5156 22.7904 26.7547 21.8279 26.7188C20.6029 26.675 19.3732 26.6766 18.1482 26.7234C17.2435 26.7594 16.5825 27.5187 16.5685 28.4219C16.5622 28.7609 16.5669 29.1 16.5669 29.4391C16.5669 31.8937 16.5685 34.3484 16.5654 36.8031C16.5638 37.525 16.1263 37.9578 15.4075 37.9578C13.4794 37.9594 11.5497 37.9703 9.6216 37.9531C7.67629 37.9359 5.93879 36.2547 5.92004 34.3172C5.88723 30.7984 5.90441 27.2797 5.90129 23.7625C5.90129 23.6172 5.90129 23.4703 5.90129 23.3031C5.64191 23.3031 5.44348 23.3109 5.2466 23.3016C3.97316 23.2406 3.02316 22.6391 2.42473 21.525C1.71535 20.2062 1.9966 18.6844 3.12941 17.55C7.77316 12.9031 12.4247 8.26406 17.0591 3.60781C17.7654 2.89062 18.4888 2.23594 19.5169 2.03906Z" fill="#164CA1"/>
</g>
<defs>
<clipPath id="clip0_893_2840">
<rect width="40" height="40" fill="white"/>
</clipPath>
</defs>
</svg>
