<svg width="40" height="40" viewBox="0 0 40 40" fill="none" xmlns="http://www.w3.org/2000/svg">
<g clip-path="url(#clip0_391_271)">
<path d="M25.9342 2.09863C26.1436 2.15957 26.353 2.21582 26.5608 2.28301C28.1311 2.78457 29.2483 4.23926 29.2748 5.89238C29.3014 7.56894 29.2889 9.24707 29.2795 10.9252C29.2748 11.6518 28.6936 12.2236 27.9967 12.2268C27.2811 12.2299 26.7108 11.6518 26.7077 10.9002C26.703 9.31582 26.7077 7.73144 26.7061 6.14707C26.7045 5.20801 26.1733 4.67676 25.2327 4.67676C20.3405 4.67519 15.4483 4.67676 10.5545 4.67676C10.4545 4.67676 10.3545 4.67676 10.2545 4.67676C10.2467 4.69707 10.2405 4.71894 10.2327 4.73926C10.3139 4.79082 10.3936 4.84551 10.478 4.89394C12.8545 6.26738 15.2248 7.64863 17.6092 9.00801C19.0483 9.82832 19.7467 11.0408 19.7436 12.6971C19.7342 18.1721 19.7405 23.6471 19.7405 29.1221C19.7405 29.2721 19.7405 29.4221 19.7405 29.608C19.892 29.6158 20.0155 29.6267 20.1373 29.6267C21.803 29.6283 23.4686 29.6283 25.1342 29.6267C26.1827 29.6252 26.7045 29.1049 26.7045 28.0642C26.7045 26.7361 26.703 25.408 26.7045 24.0799C26.7061 23.2658 27.2405 22.6752 27.9795 22.6689C28.7264 22.6627 29.2795 23.2658 29.2811 24.0955C29.2827 25.4236 29.2827 26.7518 29.2811 28.0799C29.278 30.5033 27.6077 32.1892 25.1827 32.2017C23.517 32.2111 21.8514 32.2033 20.1858 32.2033C20.0498 32.2033 19.9139 32.2033 19.7389 32.2033C19.7389 32.7924 19.7452 33.3377 19.7373 33.883C19.7077 35.9752 18.4405 37.4861 16.378 37.8486C15.4592 38.0096 14.603 37.7783 13.8014 37.3142C11.1936 35.8049 8.58579 34.2971 5.97485 32.7924C5.30141 32.4049 4.77016 31.8814 4.41391 31.1892C4.12172 30.6205 3.98735 30.0127 3.98735 29.3736C3.98735 21.6033 3.98422 13.8346 3.98891 6.06426C3.99047 4.09707 5.27329 2.55957 7.21704 2.15957C7.25922 2.1502 7.29672 2.11895 7.33735 2.09863C13.5373 2.09863 19.7358 2.09863 25.9342 2.09863Z" fill="white"/>
<path d="M31.5465 15.786C31.0949 15.3391 30.6324 14.9032 30.1933 14.4454C29.6105 13.836 29.7293 12.8892 30.4277 12.4563C30.9277 12.147 31.5418 12.1813 31.9746 12.6048C33.2121 13.8204 34.4433 15.0454 35.6543 16.2876C36.1402 16.786 36.123 17.5266 35.634 18.0235C34.4261 19.2532 33.2074 20.472 31.9761 21.6798C31.473 22.1735 30.7027 22.1454 30.2105 21.6657C29.709 21.1767 29.6746 20.3907 30.1636 19.8735C30.6027 19.411 31.0746 18.9813 31.5308 18.536C31.5199 18.5048 31.5074 18.472 31.4965 18.4407C31.3652 18.4407 31.234 18.4407 31.1011 18.4407C28.1668 18.4407 25.2308 18.4423 22.2965 18.4391C21.348 18.4376 20.7449 17.7704 20.8949 16.9016C20.9996 16.3001 21.5043 15.872 22.1574 15.8673C23.7761 15.8579 25.3949 15.8626 27.0136 15.8626C28.3996 15.8626 29.7855 15.8626 31.1715 15.8626C31.2824 15.8626 31.3933 15.8626 31.5027 15.8626C31.5215 15.8376 31.534 15.811 31.5465 15.786Z" fill="white"/>
</g>
<defs>
<clipPath id="clip0_391_271">
<rect width="40" height="40" fill="white"/>
</clipPath>
</defs>
</svg>
