<svg width="256" height="256" viewBox="0 0 256 256" fill="none" xmlns="http://www.w3.org/2000/svg">
<g clip-path="url(#clip0_2046_55)">
<path d="M118.12 12.9807C122.8 13.4307 127.49 13.7807 132.16 14.3307C148.65 16.2807 164.7 19.9307 179.66 27.4207C187 31.1007 193.78 35.6007 198.83 42.2607C205.65 51.2407 205.71 61.1907 198.91 70.1907C193.1 77.8707 185.11 82.6907 176.55 86.6407C163.33 92.7307 149.32 96.0107 134.96 97.8907C119.99 99.8507 104.98 100.191 89.96 98.7607C70.1 96.8707 50.8 92.8307 33.2 82.8607C30.16 81.1407 27.29 79.0507 24.54 76.8807C18.76 72.3007 14.71 66.5207 13 59.2507C13 57.3007 13 55.3607 13 53.4107C14.74 45.6907 19.2 39.7707 25.34 35.0307C27.7 33.2107 30.16 31.4607 32.74 29.9707C48.98 20.6007 66.81 16.4807 85.21 14.3107C89.73 13.7807 94.27 13.4107 98.8 12.9707C105.24 12.9807 111.68 12.9807 118.12 12.9807Z" fill="#164CA1"/>
<path d="M13 78.1211C20.64 85.9311 29.71 91.6011 39.7 95.8711C53.13 101.611 67.19 104.991 81.63 106.861C96.83 108.831 112.06 109.161 127.32 107.731C148.1 105.781 168.22 101.371 186.73 91.2111C192.73 87.9211 198.25 83.9611 202.97 78.9611C203.16 78.7611 203.4 78.6211 203.83 78.2811C203.83 91.9611 203.83 105.371 203.83 118.791C199.88 118.081 195.97 117.081 192 116.711C165.79 114.251 144.75 123.661 128.9 144.651C127.97 145.891 127.06 146.591 125.49 146.711C97.93 148.701 70.94 146.361 45.03 136.071C35.86 132.431 27.33 127.681 20.4 120.461C16.69 116.601 14.29 112.041 13.02 106.871C13 97.2811 13 87.7011 13 78.1211ZM47.38 111.331C44.95 111.381 43.03 113.401 43.07 115.851C43.11 118.281 45.13 120.281 47.52 120.271C49.96 120.261 52.11 118.011 51.99 115.601C51.88 113.201 49.81 111.281 47.38 111.331ZM32.44 106.121C32.48 103.651 30.6 101.631 28.16 101.531C25.68 101.431 23.55 103.521 23.55 106.041C23.56 108.491 25.51 110.451 27.97 110.471C30.47 110.501 32.4 108.611 32.44 106.121Z" fill="#164CA1"/>
<path d="M13 173.801C16.6 176.801 20.01 180.101 23.85 182.751C36.73 191.651 51.29 196.541 66.44 199.831C82.98 203.421 99.73 204.671 116.63 203.931C118.43 203.851 119.32 204.231 119.97 206.141C124.36 219.021 132.07 229.581 142.81 237.921C143.39 238.371 143.96 238.831 145.06 239.711C140.21 240.411 135.92 241.111 131.6 241.631C116.15 243.491 100.68 243.501 85.25 241.601C67.1 239.371 49.5 235.161 33.43 226.001C30.45 224.301 27.62 222.301 24.91 220.201C19.04 215.641 14.78 209.911 13.01 202.551C13 192.971 13 183.381 13 173.801ZM47.47 208.861C45.07 208.861 43.1 210.831 43.06 213.261C43.02 215.811 44.99 217.821 47.53 217.811C49.95 217.801 51.96 215.841 51.99 213.441C52.02 210.991 49.93 208.861 47.47 208.861ZM28.01 208.011C30.49 208.011 32.42 206.111 32.46 203.641C32.49 201.191 30.56 199.181 28.13 199.111C25.65 199.041 23.5 201.161 23.54 203.641C23.56 206.071 25.54 208.001 28.01 208.011Z" fill="#164CA1"/>
<path d="M13 125.73C23.74 137.15 37.39 143.57 52.02 148.2C74.19 155.21 96.96 157.21 120.09 156.01C120.68 155.98 121.28 156.01 122.23 156.01C116.71 168.48 115.05 181.4 117.01 194.88C110.22 194.88 103.64 195.17 97.09 194.82C80.66 193.96 64.5 191.29 49.09 185.38C42.71 182.93 36.47 179.88 30.58 176.4C22.09 171.37 15.24 164.69 13 154.48C13 144.9 13 135.32 13 125.73ZM47.42 168.97C49.9 169 51.91 167.14 52.01 164.71C52.11 162.25 50.01 160.1 47.51 160.11C45.07 160.11 43.1 162.07 43.08 164.52C43.06 167.01 44.94 168.94 47.42 168.97ZM32.43 154.72C32.39 152.24 30.48 150.37 27.98 150.37C25.55 150.37 23.57 152.34 23.56 154.79C23.55 157.32 25.65 159.38 28.15 159.28C30.62 159.18 32.47 157.21 32.43 154.72Z" fill="#164CA1"/>
<path d="M125.22 184.101C125.22 151.501 151.58 125.161 184.17 125.211C216.65 125.261 242.97 151.581 243 184.041C243.03 216.541 216.52 243.021 184.01 242.981C151.58 242.941 125.23 216.551 125.22 184.101ZM152.39 184.111C152.39 192.861 152.36 201.621 152.4 210.371C152.43 217.391 156.76 221.781 163.71 221.801C177.33 221.831 190.94 221.841 204.56 221.801C211.31 221.781 215.69 217.441 215.71 210.731C215.75 194.791 215.71 178.861 215.74 162.921C215.74 160.981 215.1 159.491 213.72 158.151C210.44 154.971 207.21 151.751 204.04 148.471C202.58 146.961 200.96 146.341 198.86 146.351C187.26 146.411 175.67 146.381 164.07 146.381C156.61 146.381 152.41 150.581 152.4 158.071C152.38 166.751 152.39 175.431 152.39 184.111Z" fill="#164CA1"/>
<path d="M47.38 111.331C49.8 111.281 51.87 113.201 51.99 115.601C52.11 118.011 49.96 120.261 47.52 120.271C45.13 120.281 43.12 118.281 43.07 115.851C43.03 113.401 44.95 111.381 47.38 111.331Z" fill="white"/>
<path d="M32.44 106.121C32.4 108.611 30.46 110.501 27.98 110.481C25.52 110.461 23.57 108.501 23.56 106.051C23.55 103.531 25.69 101.441 28.17 101.541C30.6 101.631 32.48 103.651 32.44 106.121Z" fill="white"/>
<path d="M47.47 208.861C49.93 208.861 52.02 210.991 51.98 213.451C51.95 215.841 49.94 217.811 47.52 217.821C44.98 217.831 43.01 215.821 43.05 213.271C43.09 210.841 45.07 208.871 47.47 208.861Z" fill="white"/>
<path d="M28.01 208.011C25.55 208.011 23.57 206.071 23.53 203.631C23.49 201.151 25.64 199.031 28.12 199.101C30.56 199.171 32.49 201.191 32.45 203.631C32.42 206.111 30.49 208.011 28.01 208.011Z" fill="white"/>
<path d="M47.42 168.972C44.94 168.942 43.06 167.002 43.08 164.512C43.1 162.062 45.07 160.102 47.51 160.102C50.02 160.102 52.11 162.242 52.01 164.702C51.91 167.142 49.9 169.012 47.42 168.972Z" fill="white"/>
<path d="M32.43 154.721C32.47 157.211 30.62 159.181 28.15 159.281C25.65 159.381 23.54 157.321 23.56 154.791C23.57 152.351 25.55 150.371 27.98 150.371C30.48 150.371 32.39 152.241 32.43 154.721Z" fill="white"/>
<path d="M152.39 184.112C152.39 175.432 152.38 166.752 152.39 158.072C152.41 150.582 156.61 146.382 164.06 146.382C175.66 146.372 187.25 146.412 198.85 146.352C200.95 146.342 202.57 146.962 204.03 148.472C207.2 151.762 210.43 154.982 213.71 158.152C215.09 159.492 215.74 160.982 215.73 162.922C215.69 178.862 215.74 194.792 215.7 210.732C215.68 217.452 211.3 221.792 204.55 221.802C190.93 221.842 177.32 221.832 163.7 221.802C156.76 221.782 152.42 217.392 152.39 210.372C152.37 201.622 152.39 192.862 152.39 184.112ZM161.38 184.062C161.38 192.592 161.37 201.122 161.38 209.652C161.38 212.502 161.68 212.822 164.39 212.822C177.56 212.832 190.73 212.792 203.9 212.862C206.05 212.872 206.77 212.102 206.77 209.972C206.71 195.232 206.76 180.492 206.68 165.752C206.67 164.702 206.12 163.452 205.42 162.662C203.6 160.592 201.63 158.612 199.54 156.802C198.69 156.062 197.38 155.442 196.28 155.432C185.66 155.332 175.03 155.372 164.41 155.372C161.61 155.372 161.39 155.592 161.38 158.482C161.37 167.002 161.38 175.532 161.38 184.062Z" fill="white"/>
<path d="M161.38 184.061C161.38 175.531 161.37 167.001 161.38 158.471C161.38 155.581 161.6 155.361 164.41 155.361C175.03 155.361 185.66 155.321 196.28 155.421C197.38 155.431 198.69 156.041 199.54 156.791C201.62 158.601 203.59 160.571 205.42 162.651C206.12 163.451 206.67 164.701 206.68 165.741C206.76 180.481 206.7 195.221 206.77 209.961C206.78 212.101 206.05 212.861 203.9 212.851C190.73 212.791 177.56 212.821 164.39 212.811C161.68 212.811 161.38 212.491 161.38 209.641C161.37 201.121 161.38 192.591 161.38 184.061Z" fill="#164CA1"/>
</g>
<defs>
<clipPath id="clip0_2046_55">
<rect width="256" height="256" fill="white"/>
</clipPath>
</defs>
</svg>
