<svg width="256" height="256" viewBox="0 0 256 256" fill="none" xmlns="http://www.w3.org/2000/svg">
<g clip-path="url(#clip0_2163_64)">
<path d="M66.8002 88.0001C68.9002 87.0001 70.7002 86.2001 72.4002 85.5001C79.3002 82.5001 86.2002 79.5001 93.1002 76.6001C94.7002 76.0001 95.3002 75.2001 95.2002 73.4001C95.1002 64.3001 95.2002 55.3001 95.2002 46.0001C94.4002 45.9001 93.6002 45.8001 92.9002 45.8001C83.0002 45.8001 73.1002 45.8001 63.2002 45.7001C61.4002 45.7001 60.7002 46.3001 60.0002 47.8001C55.4002 57.7001 44.8002 63.6001 34.5002 62.0001C23.2002 60.2001 14.6002 51.6001 13.2002 40.5001C11.7002 28.7001 19.3002 17.3001 30.8002 14.0001C42.4002 10.6001 54.6002 15.9001 59.8002 26.9001C60.8002 28.9001 61.8002 29.5001 64.0002 29.5001C76.9002 29.4001 89.8002 29.4001 102.7 29.4001C108.3 29.4001 111.6 32.7001 111.6 38.3001C111.6 48.2001 111.6 58.1001 111.6 68.5001C113.5 67.7001 115.2 67.1001 116.8 66.4001C119 65.5001 121.2 64.6001 123.4 63.5001C126.5 61.9001 129.6 62.0001 132.7 63.5001C136.5 65.2001 140.3 66.8001 144.4 68.6001C144.4 67.4001 144.4 66.6001 144.4 65.8001C144.4 56.7001 144.4 47.7001 144.4 38.6001C144.4 32.7001 147.6 29.5001 153.4 29.5001C166.5 29.5001 179.6 29.5001 192.6 29.5001C194.3 29.5001 195.2 29.1001 196 27.4001C201 16.5001 212.8 10.9001 224.2 13.8001C235.9 16.8001 243.6 27.6001 242.7 39.9001C242 51.1001 232.6 60.7001 221.1 62.2001C210.7 63.6001 200.4 57.8001 195.9 47.9001C195.2 46.4001 194.5 45.8001 192.7 45.8001C182.9 45.9001 173 45.8001 163.2 45.8001C162.4 45.8001 161.7 45.8001 160.7 45.8001C160.7 48.2001 160.7 50.4001 160.7 52.6001C160.7 59.3001 160.8 65.9001 160.6 72.6001C160.5 74.8001 161.1 75.9001 163.2 76.7001C171 79.9001 178.7 83.3001 186.5 86.7001C187.3 87.0001 188 87.4001 189.1 87.9001C183.3 90.5001 177.8 92.9001 172.4 95.4001C158.3 101.7 144.2 107.9 130.1 114.2C128.5 114.9 127.2 114.9 125.5 114.2C106.8 105.8 87.9002 97.4001 69.0002 89.0001C68.4002 88.8001 67.8002 88.5001 66.8002 88.0001Z" fill="#0D47A1"/>
<path d="M62.3992 95C67.9992 97.5 73.3992 99.9 78.6992 102.3C92.9992 108.7 107.399 115 121.699 121.4C122.999 122 123.999 122.4 123.999 124.2C123.899 146.8 123.899 169.5 123.899 192.1C123.899 192.5 123.799 192.9 123.799 193.5C119.699 191.7 115.899 190 111.599 188.1C111.599 189.4 111.599 190.3 111.599 191.2C111.599 200 111.599 208.8 111.599 217.6C111.599 223 108.299 226.3 102.799 226.4C89.7992 226.4 76.7992 226.4 63.7992 226.4C62.8992 226.4 61.8992 226.4 60.8992 226.4C58.5992 232.2 54.9992 236.9 49.3992 239.8C40.1992 244.6 31.1992 244.1 22.8992 237.9C14.4992 231.6 11.2992 222.7 13.6992 212.5C16.0992 202.6 22.5992 196.3 32.6992 194.2C44.0992 191.8 54.9992 197.4 59.8992 208C60.5992 209.5 61.2992 210.1 63.0992 210.1C72.8992 210 82.7992 210.1 92.5992 210.1C93.3992 210.1 94.0992 210.1 94.9992 210.1C94.9992 209.1 95.0992 208.2 95.0992 207.4C95.0992 199.5 94.9992 191.5 95.1992 183.6C95.1992 181.6 94.6992 180.6 92.7992 179.8C84.5992 176.3 76.3992 172.5 68.1992 168.9C64.0992 167.1 62.1992 164.3 62.1992 159.8C62.2992 139.2 62.1992 118.6 62.1992 98C62.3992 97.1 62.3992 96.2 62.3992 95Z" fill="#0D47A1"/>
<path d="M194.999 226.4C181.499 226.4 167.999 226.2 154.499 226.5C148.399 226.7 144.099 222.8 144.399 216.3C144.799 207.1 144.499 197.9 144.499 188.2C140.299 190 136.399 191.7 132.199 193.5C132.199 192.5 132.199 191.8 132.199 191.2C132.199 169 132.199 146.8 132.199 124.5C132.199 123.2 132.299 122.2 133.799 121.5C153.299 112.9 172.799 104.2 192.299 95.6001C192.699 95.4001 193.099 95.3001 193.799 95.1001C193.799 96.1001 193.799 96.9001 193.799 97.8001C193.799 118.4 193.699 139 193.799 159.6C193.799 164.1 191.899 167 187.899 168.8C179.599 172.5 171.199 176.2 162.899 179.9C161.799 180.4 160.899 180.8 160.899 182.4C160.999 191.5 160.899 200.5 160.899 210C161.799 210 162.599 210 163.399 210C173.099 210 182.899 209.9 192.599 210.1C194.499 210.1 195.399 209.5 196.199 207.8C200.799 197.9 211.599 192.1 221.799 193.8C233.199 195.7 241.699 204.4 242.899 215.5C244.199 227.4 236.699 238.6 225.099 241.9C213.599 245.2 201.499 239.8 196.299 229C195.799 228.2 195.399 227.3 194.999 226.4Z" fill="#0D47A1"/>
</g>
<defs>
<clipPath id="clip0_2163_64">
<rect width="256" height="256" fill="white"/>
</clipPath>
</defs>
</svg>
