<svg width="256" height="256" viewBox="0 0 256 256" fill="none" xmlns="http://www.w3.org/2000/svg">
<g clip-path="url(#clip0_2163_55)">
<path d="M33.9004 66.4998C34.8004 65.9998 35.5004 65.4998 36.3004 64.9998C65.0004 48.2998 93.6004 31.5998 122.3 14.7998C126 12.5998 129.6 12.3998 133.4 14.5998C162.4 31.4998 191.3 48.3998 220.3 65.2998C220.9 65.5998 221.4 65.9998 222.2 66.5998C216 70.2998 210.1 73.7998 204.1 77.2998C179.5 91.7998 155 106.3 130.5 120.8C129.1 121.6 128.1 122 126.5 121C96.1004 103 65.6004 85.0998 35.2004 67.1998C34.7004 67.0998 34.5004 66.7998 33.9004 66.4998Z" fill="#0D47A1"/>
<path d="M121.2 243C110.1 236.5 99.3996 230.3 88.6996 224.1C70.0996 213.2 51.4996 202.3 32.8996 191.6C28.8996 189.3 27.0996 186.3 27.0996 181.6C27.1996 148.2 27.1996 114.8 27.1996 81.3999C27.1996 80.5999 27.1996 79.6999 27.1996 78.3999C28.1996 78.9999 28.9996 79.2999 29.7996 79.7999C59.5996 97.2999 89.3996 114.9 119.2 132.4C120.6 133.2 121.4 134 121.4 135.8C121.3 171 121.4 206.2 121.3 241.4C121.3 241.6 121.2 242.1 121.2 243Z" fill="#0D47A1"/>
<path d="M134.7 242.8C134.7 237.4 134.7 232.3 134.7 227.1C134.7 196.9 134.7 166.6 134.6 136.4C134.6 134.4 135.2 133.3 137 132.3C166.5 115 195.9 97.5999 225.4 80.1999C226.4 79.5999 227.3 79.0999 228.6 78.3999C228.7 79.3999 228.8 80.1999 228.8 80.9999C228.8 114.8 228.8 148.6 228.8 182.3C228.8 186.3 227.2 189.1 223.9 191.1C194.8 208.1 165.6 225.1 136.5 242.1C136.1 242.3 135.5 242.5 134.7 242.8Z" fill="#0D47A1"/>
</g>
<defs>
<clipPath id="clip0_2163_55">
<rect width="256" height="256" fill="white"/>
</clipPath>
</defs>
</svg>
