<svg width="40" height="40" viewBox="0 0 40 40" fill="none" xmlns="http://www.w3.org/2000/svg">
<g clip-path="url(#clip0_7_2156)">
<path d="M5.42667 36.6671C5.42667 36.4311 5.42667 36.2577 5.42667 36.0843C5.42667 28.0796 5.42667 20.0749 5.42667 12.0702C5.42667 11.2968 5.52042 11.1733 6.24699 10.9655C7.48292 10.614 8.71886 10.2593 9.9548 9.90459C10.0439 9.87959 10.1267 9.83584 10.2345 9.79209C10.2345 8.74521 10.2329 7.69834 10.2345 6.65146C10.236 6.06553 10.3345 5.92959 10.8907 5.75303C14.7485 4.53896 18.6064 3.32646 22.4657 2.11396C22.5532 2.08584 22.6439 2.07178 22.7798 2.04053C22.7798 13.578 22.7798 25.0921 22.7798 36.6358C23.2157 36.6358 23.611 36.6358 24.0579 36.6358C24.0579 25.1593 24.0579 13.6874 24.0579 2.14834C24.236 2.25459 24.3501 2.31709 24.4579 2.3874C26.7251 3.84521 28.9876 5.3124 31.2642 6.75615C31.672 7.01553 31.8689 7.31553 31.8439 7.80615C31.8126 8.42178 31.8204 9.04209 31.847 9.65928C31.8532 9.81084 31.9626 10.0108 32.0876 10.0937C32.7017 10.5015 33.3314 10.8858 33.9673 11.2608C34.2673 11.439 34.4001 11.6858 34.4001 12.0218C34.4001 12.1421 34.4001 12.264 34.4001 12.3843C34.4001 20.2952 34.4001 28.2046 34.4001 36.1155C34.4001 36.2858 34.4001 36.4562 34.4001 36.6655C35.3814 36.6655 36.3189 36.6608 37.2548 36.6671C37.7204 36.6702 38.0251 36.9843 37.9595 37.3937C37.9095 37.7046 37.7204 37.8983 37.4048 37.9452C37.286 37.9624 37.1642 37.9515 37.0423 37.9515C25.6798 37.9515 14.3189 37.9515 2.95636 37.9515C2.86261 37.9515 2.76886 37.9562 2.67511 37.9499C2.28761 37.928 2.03761 37.6843 2.03136 37.3218C2.02511 36.9421 2.2798 36.6733 2.68761 36.6686C3.46574 36.6593 4.24542 36.6655 5.02511 36.6655C5.1423 36.6671 5.26105 36.6671 5.42667 36.6671ZM14.2407 30.1421C16.0392 30.1421 17.8392 30.1421 19.6376 30.1421C19.7454 30.1421 19.8532 30.1499 19.9595 30.1374C20.3126 30.0921 20.5329 29.8796 20.5517 29.5327C20.5704 29.1827 20.361 28.9546 20.0173 28.8796C19.8892 28.8515 19.7501 28.8593 19.6173 28.8593C17.147 28.8577 14.6767 28.8593 12.2064 28.8593C11.0782 28.8593 9.95011 28.8452 8.82355 28.8718C8.59386 28.8765 8.30949 28.9811 8.15949 29.1421C8.0423 29.2687 8.02824 29.5718 8.08292 29.7624C8.17199 30.0671 8.45636 30.1468 8.76417 30.1452C10.5892 30.1405 12.4157 30.1421 14.2407 30.1421ZM8.79699 20.8812C9.77667 20.7405 10.811 20.5952 11.8454 20.4437C14.497 20.053 17.147 19.6562 19.8001 19.2671C20.3142 19.1921 20.6189 18.9015 20.5548 18.5155C20.486 18.1046 20.1376 17.9218 19.6235 17.9983C17.3314 18.3405 15.036 18.6765 12.7439 19.0155C11.3657 19.2187 9.98605 19.4187 8.60949 19.6358C8.20011 19.6999 7.97511 19.9796 8.0048 20.3108C8.03761 20.6749 8.31886 20.8952 8.79699 20.8812ZM8.69699 15.8077C8.75324 15.8015 8.84855 15.7968 8.93917 15.7765C12.511 15.0077 16.0845 14.239 19.6564 13.4671C20.1329 13.364 20.3485 13.0812 20.2689 12.6905C20.1876 12.2968 19.8798 12.1265 19.3985 12.2296C16.6751 12.8093 13.9532 13.3905 11.2298 13.9749C10.3267 14.1687 9.42199 14.3593 8.52355 14.5687C8.15324 14.6546 7.9423 14.9577 8.00949 15.2702C8.08449 15.6093 8.29074 15.8108 8.69699 15.8077ZM9.05636 25.6358C9.05636 25.639 9.05636 25.6421 9.05636 25.6452C10.5267 25.5327 11.997 25.4218 13.4689 25.3093C15.5282 25.1515 17.5876 24.9968 19.6454 24.8343C20.0673 24.8015 20.3126 24.5311 20.2876 24.164C20.2642 23.7952 19.986 23.5593 19.5642 23.5827C18.9079 23.6171 18.2532 23.6671 17.597 23.7155C15.6048 23.8655 13.6126 24.0187 11.6204 24.1718C10.6173 24.2483 9.61574 24.3265 8.61261 24.4108C8.25011 24.4421 8.00167 24.7093 8.00011 25.0374C8.00011 25.3796 8.28292 25.6562 8.65324 25.664C8.78761 25.6671 8.92199 25.6468 9.05636 25.6358ZM32.1282 15.6608C32.0548 15.5687 31.9407 15.3546 31.7657 15.2233C31.5548 15.0671 31.2923 14.9796 31.0501 14.864C29.7329 14.2358 28.4204 13.5952 27.0907 12.9952C26.8845 12.903 26.5439 12.9218 26.3548 13.0358C26.2048 13.1265 26.1001 13.464 26.1423 13.653C26.186 13.8452 26.4048 14.053 26.5985 14.1483C27.8579 14.7718 29.1314 15.3671 30.4017 15.9702C30.7032 16.114 31.0001 16.2749 31.3157 16.3827C31.7204 16.5218 32.1189 16.2202 32.1282 15.6608ZM32.1251 20.5249C32.1157 20.1608 31.9001 19.9843 31.5767 19.8733C30.0735 19.3546 28.5767 18.8233 27.0751 18.3015C26.6251 18.1452 26.2564 18.2765 26.1329 18.6233C25.9923 19.0155 26.1845 19.3358 26.661 19.503C27.4673 19.7858 28.2751 20.0671 29.0814 20.3499C29.7751 20.5921 30.4673 20.839 31.1626 21.0733C31.6954 21.253 32.1204 21.0046 32.1251 20.5249ZM26.847 23.8374C26.4282 23.8296 26.186 23.978 26.1173 24.339C26.0485 24.6952 26.2267 24.9655 26.5814 25.0718C26.6454 25.0905 26.711 25.1093 26.7767 25.1202C28.2923 25.3827 29.8079 25.6452 31.3251 25.9015C31.7439 25.9718 32.0439 25.7765 32.1126 25.4124C32.1845 25.0218 31.9704 24.7358 31.5298 24.6546C30.7923 24.5187 30.0548 24.389 29.3173 24.2608C28.472 24.1124 27.6282 23.9702 26.847 23.8374ZM29.0735 29.239C29.0735 29.2437 29.0735 29.2468 29.0735 29.2515C28.3251 29.2077 27.5767 29.1577 26.8282 29.1218C26.4095 29.1015 26.1314 29.3405 26.1095 29.7093C26.0876 30.0905 26.3282 30.364 26.736 30.3874C28.286 30.4765 29.836 30.5624 31.3876 30.639C31.8298 30.6608 32.0845 30.439 32.1064 30.064C32.1282 29.6749 31.9142 29.4265 31.4782 29.3921C30.6782 29.3296 29.8751 29.289 29.0735 29.239Z" fill="#164CA1"/>
<path d="M14.2404 30.1421C12.4154 30.1421 10.5889 30.1405 8.76385 30.1437C8.45604 30.1437 8.17166 30.064 8.0826 29.7608C8.02635 29.5702 8.04042 29.2671 8.15917 29.1405C8.30916 28.9796 8.59354 28.8749 8.82323 28.8702C9.94979 28.8437 11.0779 28.8577 12.206 28.8577C14.6764 28.8577 17.1467 28.8577 19.617 28.8577C19.7513 28.8577 19.8888 28.8499 20.017 28.878C20.3607 28.953 20.5701 29.1812 20.5513 29.5312C20.5326 29.878 20.3123 30.089 19.9592 30.1358C19.8529 30.1499 19.7451 30.1405 19.6373 30.1405C17.8389 30.1421 16.0404 30.1421 14.2404 30.1421Z" fill="white"/>
<path d="M8.79735 20.881C8.31923 20.8951 8.03641 20.6748 8.0036 20.3091C7.97391 19.9779 8.19735 19.6982 8.60829 19.6341C9.98485 19.4185 11.3645 19.2185 12.7427 19.0138C15.0364 18.6748 17.3302 18.3404 19.6224 17.9966C20.1349 17.9201 20.4848 18.1013 20.5536 18.5138C20.6177 18.8998 20.3145 19.1904 19.7989 19.2654C17.1474 19.6544 14.4958 20.0513 11.8442 20.4419C10.813 20.5966 9.77704 20.7404 8.79735 20.881Z" fill="white"/>
<path d="M8.69742 15.8077C8.29273 15.8109 8.08492 15.6093 8.01148 15.2702C7.94429 14.9577 8.15367 14.6546 8.52554 14.5687C9.42554 14.3593 10.3287 14.1687 11.2318 13.9749C13.9537 13.3921 16.6771 12.8093 19.4005 12.2296C19.8818 12.128 20.1896 12.2968 20.2709 12.6905C20.3505 13.0812 20.1349 13.364 19.6584 13.4671C16.0865 14.239 12.5146 15.0077 8.94117 15.7765C8.84742 15.7968 8.75367 15.8015 8.69742 15.8077Z" fill="white"/>
<path d="M9.05664 25.6361C8.92227 25.647 8.78945 25.6673 8.65508 25.6642C8.28477 25.6548 8.00195 25.3783 8.00195 25.0376C8.00195 24.7095 8.25195 24.4423 8.61445 24.4111C9.61602 24.3267 10.6191 24.2501 11.6223 24.172C13.6145 24.0189 15.6066 23.8658 17.5988 23.7158C18.2535 23.6658 18.9098 23.6173 19.566 23.583C19.9879 23.5611 20.266 23.7955 20.2895 24.1642C20.3129 24.5298 20.0691 24.8001 19.6473 24.8345C17.5895 24.997 15.5301 25.1517 13.4707 25.3095C12.0004 25.422 10.5301 25.5345 9.0582 25.6455C9.05664 25.6439 9.05664 25.6392 9.05664 25.6361Z" fill="white"/>
<path d="M32.1282 15.6608C32.1188 16.2202 31.7204 16.5217 31.3157 16.3827C31.0016 16.2748 30.7047 16.1139 30.4016 15.9702C29.1313 15.367 27.8579 14.7717 26.5985 14.1483C26.4047 14.053 26.186 13.8452 26.1422 13.653C26.1 13.4639 26.2047 13.1264 26.3547 13.0358C26.5438 12.9217 26.8844 12.903 27.0907 12.9952C28.4204 13.5952 29.7329 14.2358 31.05 14.8639C31.2922 14.9795 31.5547 15.067 31.7657 15.2233C31.9407 15.3545 32.0547 15.5686 32.1282 15.6608Z" fill="white"/>
<path d="M32.1251 20.5249C32.1204 21.0045 31.6954 21.253 31.1626 21.0749C30.4657 20.8405 29.7751 20.5936 29.0814 20.3514C28.2735 20.0702 27.4673 19.7874 26.661 19.5045C26.1845 19.3374 25.9923 19.017 26.1329 18.6249C26.2564 18.2764 26.6251 18.1452 27.0751 18.303C28.5767 18.8249 30.0751 19.3561 31.5767 19.8749C31.9001 19.9858 32.1157 20.1624 32.1251 20.5249Z" fill="white"/>
<path d="M26.8468 23.8373C27.6281 23.9701 28.4734 24.1123 29.3155 24.2592C30.053 24.3873 30.7905 24.5186 31.528 24.653C31.9687 24.7342 32.1827 25.0186 32.1109 25.4108C32.0437 25.7748 31.7437 25.9717 31.3234 25.8998C29.8062 25.6436 28.2905 25.3795 26.7749 25.1186C26.7093 25.1076 26.6437 25.0889 26.5796 25.0701C26.2265 24.9639 26.0484 24.6951 26.1155 24.3373C26.1843 23.9764 26.4281 23.828 26.8468 23.8373Z" fill="white"/>
<path d="M29.0738 29.239C29.8754 29.289 30.677 29.3312 31.4785 29.3921C31.9145 29.4265 32.1285 29.6734 32.1066 30.064C32.0848 30.4406 31.8301 30.6609 31.3879 30.639C29.8363 30.5624 28.2863 30.4765 26.7363 30.3874C26.3285 30.364 26.0879 30.0906 26.1098 29.7093C26.1316 29.3406 26.4098 29.1015 26.8285 29.1218C27.577 29.1577 28.3254 29.2077 29.0738 29.2515C29.0738 29.2468 29.0738 29.2421 29.0738 29.239Z" fill="white"/>
</g>
<defs>
<clipPath id="clip0_7_2156">
<rect width="40" height="40" fill="white"/>
</clipPath>
</defs>
</svg>
