<svg width="256" height="256" viewBox="0 0 256 256" fill="none" xmlns="http://www.w3.org/2000/svg">
<g clip-path="url(#clip0_2163_46)">
<path d="M215.1 191.7C157 191.7 99.1005 191.7 40.9005 191.7C39.6005 185.3 38.3005 178.8 37.0005 172.3C30.9005 141.7 24.8005 111.1 18.6005 80.5C18.2005 78.6 17.8005 76.7 17.4005 74.8C16.7005 71.2 17.6005 68.1 20.6005 65.8C23.5005 63.6 26.6005 63.5 29.9005 65.1C40.0005 70.2 50.2005 75.2 60.3005 80.3C69.2005 84.7 78.0005 89.2 86.9005 93.6C87.7005 94 88.5005 94.3 89.4005 94.8C93.0005 86 96.4005 77.5 99.8005 69C106.4 52.6 112.9 36.2 119.5 19.7C121.4 15.1 124 13 128 13C132.6 13.1 134.9 15.8 136.5 19.8C146.2 44 155.9 68.3 165.6 92.5C165.9 93.2 166.1 93.8 166.5 94.7C167.5 94.2 168.5 93.9 169.4 93.4C188 84.1 206.6 74.8 225.2 65.6C227.3 64.6 230 64.1 232.3 64.4C236.9 65.2 239.5 69.8 238.5 74.6C232.4 105 226.3 135.3 220.3 165.7C218.6 174.3 216.9 182.9 215.1 191.7ZM145.3 136.5C145 134.3 145 132.1 144.5 129.9C142.9 122.4 135.5 115.8 128.4 115.3C122.9 114.9 114.8 120.6 112.6 127.3C111.4 130.8 111.2 134.7 111.1 138.5C110.9 147.1 116.8 154.8 125 157.1C126.4 157.5 128 157.7 129.4 157.5C137.7 156.1 145.9 147.9 145.3 136.5Z" fill="#0D47A1"/>
<path d="M213.1 209C213.1 217.9 213.2 226.6 213.1 235.2C213 239.1 209.4 242.5 205.5 242.8C204.7 242.9 203.9 242.8 203.1 242.8C153 242.8 102.9 242.7 52.7997 242.9C46.8997 242.9 42.3997 239 42.6997 232.7C43.0997 224.8 42.7997 217 42.7997 208.9C99.5997 209 156.2 209 213.1 209Z" fill="#0D47A1"/>
</g>
<defs>
<clipPath id="clip0_2163_46">
<rect width="256" height="256" fill="white"/>
</clipPath>
</defs>
</svg>
